<?xml version="1.0" standalone="no"?>
 <!DOCTYPE svg PUBLIC "-//W3C//DTD SVG 1.1//EN" 
 "http://www.w3.org/Graphics/SVG/1.1/DTD/svg11.dtd"> 
<svg xmlns="http://www.w3.org/2000/svg" version="1.1" 
    width="41.9989cm" height="29.7002cm" viewBox="0 0 165350 116930 ">
<title>SVG Picture created as _autosave-AT42QT1010-append-F_Mask.svg date 2014/07/16 12:05:46 </title>
  <desc>Picture generated by PCBNEW </desc>
<g style="fill:#000000; fill-opacity:1;stroke:#000000; stroke-opacity:1;
stroke-linecap:round; stroke-linejoin:round; "
 transform="translate(0 0) scale(1 1)">
</g>
<g style="fill:#000000; fill-opacity:0.0; 
stroke:#000000; stroke-width:59.0551; stroke-opacity:1; 
stroke-linecap:round; stroke-linejoin:round;">
</g>
<g style="fill:#000000; fill-opacity:1.0; 
stroke:#000000; stroke-width:59.0551; stroke-opacity:1; 
stroke-linecap:round; stroke-linejoin:round;">
<polyline style="fill-rule:evenodd;"
points="40992,19557
40992,19066
41483,19066
41483,19557
40992,19557
" /> 
<circle cx="40238.2" cy="19311.6" r="245.472" /> 
<circle cx="40238.2" cy="20311.6" r="245.472" /> 
<polyline style="fill-rule:evenodd;"
points="39122,23315
39122,23181
40322,23181
40322,23315
39122,23315
" /> 
<polyline style="fill-rule:evenodd;"
points="39122,22815
39122,22681
40322,22681
40322,22815
39122,22815
" /> 
<polyline style="fill-rule:evenodd;"
points="39122,22315
39122,22181
40322,22181
40322,22315
39122,22315
" /> 
<polyline style="fill-rule:evenodd;"
points="39122,21815
39122,21681
40322,21681
40322,21815
39122,21815
" /> 
<polyline style="fill-rule:evenodd;"
points="39122,23815
39122,23681
40322,23681
40322,23815
39122,23815
" /> 
<polyline style="fill-rule:evenodd;"
points="39122,24315
39122,24181
40322,24181
40322,24315
39122,24315
" /> 
<polyline style="fill-rule:evenodd;"
points="39122,24815
39122,24681
40322,24681
40322,24815
39122,24815
" /> 
<polyline style="fill-rule:evenodd;"
points="39122,25315
39122,25181
40322,25181
40322,25315
39122,25315
" /> 
<polyline style="fill-rule:evenodd;"
points="39122,25815
39122,25681
40322,25681
40322,25815
39122,25815
" /> 
<polyline style="fill-rule:evenodd;"
points="39122,26315
39122,26181
40322,26181
40322,26315
39122,26315
" /> 
<polyline style="fill-rule:evenodd;"
points="43122,26315
43122,26181
44322,26181
44322,26315
43122,26315
" /> 
<polyline style="fill-rule:evenodd;"
points="43122,25815
43122,25681
44322,25681
44322,25815
43122,25815
" /> 
<polyline style="fill-rule:evenodd;"
points="43122,25315
43122,25181
44322,25181
44322,25315
43122,25315
" /> 
<polyline style="fill-rule:evenodd;"
points="43122,24815
43122,24681
44322,24681
44322,24815
43122,24815
" /> 
<polyline style="fill-rule:evenodd;"
points="43122,24315
43122,24181
44322,24181
44322,24315
43122,24315
" /> 
<polyline style="fill-rule:evenodd;"
points="43122,23815
43122,23681
44322,23681
44322,23815
43122,23815
" /> 
<polyline style="fill-rule:evenodd;"
points="43122,23315
43122,23181
44322,23181
44322,23315
43122,23315
" /> 
<polyline style="fill-rule:evenodd;"
points="43122,22815
43122,22681
44322,22681
44322,22815
43122,22815
" /> 
<polyline style="fill-rule:evenodd;"
points="43122,22315
43122,22181
44322,22181
44322,22315
43122,22315
" /> 
<polyline style="fill-rule:evenodd;"
points="43122,21815
43122,21681
44322,21681
44322,21815
43122,21815
" /> 
<polyline style="fill-rule:evenodd;"
points="38896,19959
38896,20450
38605,20450
38605,19959
38896,19959
" /> 
<polyline style="fill-rule:evenodd;"
points="38146,19959
38146,20450
37855,20450
37855,19959
38146,19959
" /> 
<polyline style="fill-rule:evenodd;"
points="37855,21336
37855,20845
38146,20845
38146,21336
37855,21336
" /> 
<polyline style="fill-rule:evenodd;"
points="38605,21336
38605,20845
38896,20845
38896,21336
38605,21336
" /> 
<polyline style="fill-rule:evenodd;"
points="41241,21509
41241,21018
41532,21018
41532,21509
41241,21509
" /> 
<polyline style="fill-rule:evenodd;"
points="41991,21509
41991,21018
42282,21018
42282,21509
41991,21509
" /> 
<polyline style="fill-rule:evenodd;"
points="38032,24113
38523,24113
38523,24404
38032,24404
38032,24113
" /> 
<polyline style="fill-rule:evenodd;"
points="38032,24863
38523,24863
38523,25154
38032,25154
38032,24863
" /> 
<polyline style="fill-rule:evenodd;"
points="44112,20451
44112,20942
43822,20942
43822,20451
44112,20451
" /> 
<polyline style="fill-rule:evenodd;"
points="43362,20451
43362,20942
43072,20942
43072,20451
43362,20451
" /> 
<polyline style="fill-rule:evenodd;"
points="41670,20293
41670,19802
41961,19802
41961,20293
41670,20293
" /> 
<polyline style="fill-rule:evenodd;"
points="42420,20293
42420,19802
42711,19802
42711,20293
42420,20293
" /> 
<polyline style="fill-rule:evenodd;"
points="42581,18940
42581,18399
43122,18399
43122,18940
42581,18940
" /> 
<circle cx="43852.4" cy="18669.8" r="270.472" /> 
<polyline style="fill-rule:evenodd;"
points="37663,21985
37663,21664
38104,21664
38104,21985
37663,21985
" /> 
<polyline style="fill-rule:evenodd;"
points="37663,22485
37663,22164
38104,22164
38104,22485
37663,22485
" /> 
<polyline style="fill-rule:evenodd;"
points="37663,23166
37663,22845
38104,22845
38104,23166
37663,23166
" /> 
<polyline style="fill-rule:evenodd;"
points="37663,23666
37663,23345
38104,23345
38104,23666
37663,23666
" /> 
<polyline style="fill-rule:evenodd;"
points="45432,20667
45767,20667
45767,20923
45432,20923
45432,20667
" /> 
<polyline style="fill-rule:evenodd;"
points="44566,21042
44901,21042
44901,21298
44566,21298
44566,21042
" /> 
<polyline style="fill-rule:evenodd;"
points="44566,20292
44901,20292
44901,20548
44566,20548
44566,20292
" /> 
<polyline style="fill-rule:evenodd;"
points="39951,28743
39951,28202
40492,28202
40492,28743
39951,28743
" /> 
<circle cx="41222.4" cy="28473" r="270.472" /> 
<circle cx="42222.4" cy="28473" r="270.472" /> 
<circle cx="43222.4" cy="28473" r="270.472" /> 
<polyline style="fill-rule:evenodd;"
points="44112,19566
44112,20057
43822,20057
43822,19566
44112,19566
" /> 
<polyline style="fill-rule:evenodd;"
points="43362,19566
43362,20057
43072,20057
43072,19566
43362,19566
" /> 
<polyline style="fill-rule:evenodd;"
points="49860,19430
49860,18939
50351,18939
50351,19430
49860,19430
" /> 
<circle cx="49106.3" cy="19185" r="245.472" /> 
<circle cx="49106.3" cy="20185" r="245.472" /> 
<polyline style="fill-rule:evenodd;"
points="47990,23188
47990,23055
49190,23055
49190,23188
47990,23188
" /> 
<polyline style="fill-rule:evenodd;"
points="47990,22688
47990,22555
49190,22555
49190,22688
47990,22688
" /> 
<polyline style="fill-rule:evenodd;"
points="47990,22188
47990,22055
49190,22055
49190,22188
47990,22188
" /> 
<polyline style="fill-rule:evenodd;"
points="47990,21688
47990,21555
49190,21555
49190,21688
47990,21688
" /> 
<polyline style="fill-rule:evenodd;"
points="47990,23688
47990,23555
49190,23555
49190,23688
47990,23688
" /> 
<polyline style="fill-rule:evenodd;"
points="47990,24188
47990,24055
49190,24055
49190,24188
47990,24188
" /> 
<polyline style="fill-rule:evenodd;"
points="47990,24688
47990,24555
49190,24555
49190,24688
47990,24688
" /> 
<polyline style="fill-rule:evenodd;"
points="47990,25188
47990,25055
49190,25055
49190,25188
47990,25188
" /> 
<polyline style="fill-rule:evenodd;"
points="47990,25688
47990,25555
49190,25555
49190,25688
47990,25688
" /> 
<polyline style="fill-rule:evenodd;"
points="47990,26188
47990,26055
49190,26055
49190,26188
47990,26188
" /> 
<polyline style="fill-rule:evenodd;"
points="51990,26188
51990,26055
53190,26055
53190,26188
51990,26188
" /> 
<polyline style="fill-rule:evenodd;"
points="51990,25688
51990,25555
53190,25555
53190,25688
51990,25688
" /> 
<polyline style="fill-rule:evenodd;"
points="51990,25188
51990,25055
53190,25055
53190,25188
51990,25188
" /> 
<polyline style="fill-rule:evenodd;"
points="51990,24688
51990,24555
53190,24555
53190,24688
51990,24688
" /> 
<polyline style="fill-rule:evenodd;"
points="51990,24188
51990,24055
53190,24055
53190,24188
51990,24188
" /> 
<polyline style="fill-rule:evenodd;"
points="51990,23688
51990,23555
53190,23555
53190,23688
51990,23688
" /> 
<polyline style="fill-rule:evenodd;"
points="51990,23188
51990,23055
53190,23055
53190,23188
51990,23188
" /> 
<polyline style="fill-rule:evenodd;"
points="51990,22688
51990,22555
53190,22555
53190,22688
51990,22688
" /> 
<polyline style="fill-rule:evenodd;"
points="51990,22188
51990,22055
53190,22055
53190,22188
51990,22188
" /> 
<polyline style="fill-rule:evenodd;"
points="51990,21688
51990,21555
53190,21555
53190,21688
51990,21688
" /> 
<polyline style="fill-rule:evenodd;"
points="47764,19833
47764,20324
47473,20324
47473,19833
47764,19833
" /> 
<polyline style="fill-rule:evenodd;"
points="47014,19833
47014,20324
46723,20324
46723,19833
47014,19833
" /> 
<polyline style="fill-rule:evenodd;"
points="46723,21210
46723,20719
47014,20719
47014,21210
46723,21210
" /> 
<polyline style="fill-rule:evenodd;"
points="47473,21210
47473,20719
47764,20719
47764,21210
47473,21210
" /> 
<polyline style="fill-rule:evenodd;"
points="50109,21383
50109,20892
50400,20892
50400,21383
50109,21383
" /> 
<polyline style="fill-rule:evenodd;"
points="50859,21383
50859,20892
51150,20892
51150,21383
50859,21383
" /> 
<polyline style="fill-rule:evenodd;"
points="46900,23987
47391,23987
47391,24278
46900,24278
46900,23987
" /> 
<polyline style="fill-rule:evenodd;"
points="46900,24737
47391,24737
47391,25028
46900,25028
46900,24737
" /> 
<polyline style="fill-rule:evenodd;"
points="52981,20325
52981,20816
52690,20816
52690,20325
52981,20325
" /> 
<polyline style="fill-rule:evenodd;"
points="52231,20325
52231,20816
51940,20816
51940,20325
52231,20325
" /> 
<polyline style="fill-rule:evenodd;"
points="50538,20166
50538,19675
50829,19675
50829,20166
50538,20166
" /> 
<polyline style="fill-rule:evenodd;"
points="51288,20166
51288,19675
51579,19675
51579,20166
51288,20166
" /> 
<polyline style="fill-rule:evenodd;"
points="51450,18813
51450,18272
51990,18272
51990,18813
51450,18813
" /> 
<circle cx="52720.5" cy="18543.3" r="270.472" /> 
<polyline style="fill-rule:evenodd;"
points="46531,21859
46531,21538
46972,21538
46972,21859
46531,21859
" /> 
<polyline style="fill-rule:evenodd;"
points="46531,22359
46531,22038
46972,22038
46972,22359
46531,22359
" /> 
<polyline style="fill-rule:evenodd;"
points="46531,23040
46531,22719
46972,22719
46972,23040
46531,23040
" /> 
<polyline style="fill-rule:evenodd;"
points="46531,23540
46531,23219
46972,23219
46972,23540
46531,23540
" /> 
<polyline style="fill-rule:evenodd;"
points="54300,20541
54635,20541
54635,20797
54300,20797
54300,20541
" /> 
<polyline style="fill-rule:evenodd;"
points="53434,20916
53769,20916
53769,21172
53434,21172
53434,20916
" /> 
<polyline style="fill-rule:evenodd;"
points="53434,20166
53769,20166
53769,20422
53434,20422
53434,20166
" /> 
<polyline style="fill-rule:evenodd;"
points="48820,28616
48820,28075
49361,28075
49361,28616
48820,28616
" /> 
<circle cx="50090.6" cy="28346.5" r="270.472" /> 
<circle cx="51090.6" cy="28346.5" r="270.472" /> 
<circle cx="52090.6" cy="28346.5" r="270.472" /> 
<polyline style="fill-rule:evenodd;"
points="52981,19439
52981,19930
52690,19930
52690,19439
52981,19439
" /> 
<polyline style="fill-rule:evenodd;"
points="52231,19439
52231,19930
51940,19930
51940,19439
52231,19439
" /> 
<polyline style="fill-rule:evenodd;"
points="58915,19430
58915,18939
59406,18939
59406,19430
58915,19430
" /> 
<circle cx="58161.4" cy="19185" r="245.472" /> 
<circle cx="58161.4" cy="20185" r="245.472" /> 
<polyline style="fill-rule:evenodd;"
points="57045,23188
57045,23055
58246,23055
58246,23188
57045,23188
" /> 
<polyline style="fill-rule:evenodd;"
points="57045,22688
57045,22555
58246,22555
58246,22688
57045,22688
" /> 
<polyline style="fill-rule:evenodd;"
points="57045,22188
57045,22055
58246,22055
58246,22188
57045,22188
" /> 
<polyline style="fill-rule:evenodd;"
points="57045,21688
57045,21555
58246,21555
58246,21688
57045,21688
" /> 
<polyline style="fill-rule:evenodd;"
points="57045,23688
57045,23555
58246,23555
58246,23688
57045,23688
" /> 
<polyline style="fill-rule:evenodd;"
points="57045,24188
57045,24055
58246,24055
58246,24188
57045,24188
" /> 
<polyline style="fill-rule:evenodd;"
points="57045,24688
57045,24555
58246,24555
58246,24688
57045,24688
" /> 
<polyline style="fill-rule:evenodd;"
points="57045,25188
57045,25055
58246,25055
58246,25188
57045,25188
" /> 
<polyline style="fill-rule:evenodd;"
points="57045,25688
57045,25555
58246,25555
58246,25688
57045,25688
" /> 
<polyline style="fill-rule:evenodd;"
points="57045,26188
57045,26055
58246,26055
58246,26188
57045,26188
" /> 
<polyline style="fill-rule:evenodd;"
points="61045,26188
61045,26055
62246,26055
62246,26188
61045,26188
" /> 
<polyline style="fill-rule:evenodd;"
points="61045,25688
61045,25555
62246,25555
62246,25688
61045,25688
" /> 
<polyline style="fill-rule:evenodd;"
points="61045,25188
61045,25055
62246,25055
62246,25188
61045,25188
" /> 
<polyline style="fill-rule:evenodd;"
points="61045,24688
61045,24555
62246,24555
62246,24688
61045,24688
" /> 
<polyline style="fill-rule:evenodd;"
points="61045,24188
61045,24055
62246,24055
62246,24188
61045,24188
" /> 
<polyline style="fill-rule:evenodd;"
points="61045,23688
61045,23555
62246,23555
62246,23688
61045,23688
" /> 
<polyline style="fill-rule:evenodd;"
points="61045,23188
61045,23055
62246,23055
62246,23188
61045,23188
" /> 
<polyline style="fill-rule:evenodd;"
points="61045,22688
61045,22555
62246,22555
62246,22688
61045,22688
" /> 
<polyline style="fill-rule:evenodd;"
points="61045,22188
61045,22055
62246,22055
62246,22188
61045,22188
" /> 
<polyline style="fill-rule:evenodd;"
points="61045,21688
61045,21555
62246,21555
62246,21688
61045,21688
" /> 
<polyline style="fill-rule:evenodd;"
points="56819,19833
56819,20324
56528,20324
56528,19833
56819,19833
" /> 
<polyline style="fill-rule:evenodd;"
points="56069,19833
56069,20324
55778,20324
55778,19833
56069,19833
" /> 
<polyline style="fill-rule:evenodd;"
points="55778,21210
55778,20719
56069,20719
56069,21210
55778,21210
" /> 
<polyline style="fill-rule:evenodd;"
points="56528,21210
56528,20719
56819,20719
56819,21210
56528,21210
" /> 
<polyline style="fill-rule:evenodd;"
points="59164,21383
59164,20892
59455,20892
59455,21383
59164,21383
" /> 
<polyline style="fill-rule:evenodd;"
points="59914,21383
59914,20892
60205,20892
60205,21383
59914,21383
" /> 
<polyline style="fill-rule:evenodd;"
points="55955,23987
56446,23987
56446,24278
55955,24278
55955,23987
" /> 
<polyline style="fill-rule:evenodd;"
points="55955,24737
56446,24737
56446,25028
55955,25028
55955,24737
" /> 
<polyline style="fill-rule:evenodd;"
points="62036,20325
62036,20816
61745,20816
61745,20325
62036,20325
" /> 
<polyline style="fill-rule:evenodd;"
points="61286,20325
61286,20816
60995,20816
60995,20325
61286,20325
" /> 
<polyline style="fill-rule:evenodd;"
points="59593,20166
59593,19675
59884,19675
59884,20166
59593,20166
" /> 
<polyline style="fill-rule:evenodd;"
points="60343,20166
60343,19675
60634,19675
60634,20166
60343,20166
" /> 
<polyline style="fill-rule:evenodd;"
points="60505,18813
60505,18272
61046,18272
61046,18813
60505,18813
" /> 
<circle cx="61775.6" cy="18543.3" r="270.472" /> 
<polyline style="fill-rule:evenodd;"
points="55586,21859
55586,21538
56027,21538
56027,21859
55586,21859
" /> 
<polyline style="fill-rule:evenodd;"
points="55586,22359
55586,22038
56027,22038
56027,22359
55586,22359
" /> 
<polyline style="fill-rule:evenodd;"
points="55586,23040
55586,22719
56027,22719
56027,23040
55586,23040
" /> 
<polyline style="fill-rule:evenodd;"
points="55586,23540
55586,23219
56027,23219
56027,23540
55586,23540
" /> 
<polyline style="fill-rule:evenodd;"
points="63356,20541
63691,20541
63691,20797
63356,20797
63356,20541
" /> 
<polyline style="fill-rule:evenodd;"
points="62490,20916
62825,20916
62825,21172
62490,21172
62490,20916
" /> 
<polyline style="fill-rule:evenodd;"
points="62490,20166
62825,20166
62825,20422
62490,20422
62490,20166
" /> 
<polyline style="fill-rule:evenodd;"
points="57875,28616
57875,28075
58416,28075
58416,28616
57875,28616
" /> 
<circle cx="59145.7" cy="28346.5" r="270.472" /> 
<circle cx="60145.7" cy="28346.5" r="270.472" /> 
<circle cx="61145.7" cy="28346.5" r="270.472" /> 
<polyline style="fill-rule:evenodd;"
points="62036,19439
62036,19930
61745,19930
61745,19439
62036,19439
" /> 
<polyline style="fill-rule:evenodd;"
points="61286,19439
61286,19930
60995,19930
60995,19439
61286,19439
" /> 
<polyline style="fill-rule:evenodd;"
points="67971,19430
67971,18939
68462,18939
68462,19430
67971,19430
" /> 
<circle cx="67216.5" cy="19185" r="245.472" /> 
<circle cx="67216.5" cy="20185" r="245.472" /> 
<polyline style="fill-rule:evenodd;"
points="66100,23188
66100,23055
67301,23055
67301,23188
66100,23188
" /> 
<polyline style="fill-rule:evenodd;"
points="66100,22688
66100,22555
67301,22555
67301,22688
66100,22688
" /> 
<polyline style="fill-rule:evenodd;"
points="66100,22188
66100,22055
67301,22055
67301,22188
66100,22188
" /> 
<polyline style="fill-rule:evenodd;"
points="66100,21688
66100,21555
67301,21555
67301,21688
66100,21688
" /> 
<polyline style="fill-rule:evenodd;"
points="66100,23688
66100,23555
67301,23555
67301,23688
66100,23688
" /> 
<polyline style="fill-rule:evenodd;"
points="66100,24188
66100,24055
67301,24055
67301,24188
66100,24188
" /> 
<polyline style="fill-rule:evenodd;"
points="66100,24688
66100,24555
67301,24555
67301,24688
66100,24688
" /> 
<polyline style="fill-rule:evenodd;"
points="66100,25188
66100,25055
67301,25055
67301,25188
66100,25188
" /> 
<polyline style="fill-rule:evenodd;"
points="66100,25688
66100,25555
67301,25555
67301,25688
66100,25688
" /> 
<polyline style="fill-rule:evenodd;"
points="66100,26188
66100,26055
67301,26055
67301,26188
66100,26188
" /> 
<polyline style="fill-rule:evenodd;"
points="70100,26188
70100,26055
71301,26055
71301,26188
70100,26188
" /> 
<polyline style="fill-rule:evenodd;"
points="70100,25688
70100,25555
71301,25555
71301,25688
70100,25688
" /> 
<polyline style="fill-rule:evenodd;"
points="70100,25188
70100,25055
71301,25055
71301,25188
70100,25188
" /> 
<polyline style="fill-rule:evenodd;"
points="70100,24688
70100,24555
71301,24555
71301,24688
70100,24688
" /> 
<polyline style="fill-rule:evenodd;"
points="70100,24188
70100,24055
71301,24055
71301,24188
70100,24188
" /> 
<polyline style="fill-rule:evenodd;"
points="70100,23688
70100,23555
71301,23555
71301,23688
70100,23688
" /> 
<polyline style="fill-rule:evenodd;"
points="70100,23188
70100,23055
71301,23055
71301,23188
70100,23188
" /> 
<polyline style="fill-rule:evenodd;"
points="70100,22688
70100,22555
71301,22555
71301,22688
70100,22688
" /> 
<polyline style="fill-rule:evenodd;"
points="70100,22188
70100,22055
71301,22055
71301,22188
70100,22188
" /> 
<polyline style="fill-rule:evenodd;"
points="70100,21688
70100,21555
71301,21555
71301,21688
70100,21688
" /> 
<polyline style="fill-rule:evenodd;"
points="65874,19833
65874,20324
65583,20324
65583,19833
65874,19833
" /> 
<polyline style="fill-rule:evenodd;"
points="65124,19833
65124,20324
64833,20324
64833,19833
65124,19833
" /> 
<polyline style="fill-rule:evenodd;"
points="64833,21210
64833,20719
65124,20719
65124,21210
64833,21210
" /> 
<polyline style="fill-rule:evenodd;"
points="65583,21210
65583,20719
65874,20719
65874,21210
65583,21210
" /> 
<polyline style="fill-rule:evenodd;"
points="68219,21383
68219,20892
68510,20892
68510,21383
68219,21383
" /> 
<polyline style="fill-rule:evenodd;"
points="68969,21383
68969,20892
69260,20892
69260,21383
68969,21383
" /> 
<polyline style="fill-rule:evenodd;"
points="65010,23987
65501,23987
65501,24278
65010,24278
65010,23987
" /> 
<polyline style="fill-rule:evenodd;"
points="65010,24737
65501,24737
65501,25028
65010,25028
65010,24737
" /> 
<polyline style="fill-rule:evenodd;"
points="71091,20325
71091,20816
70800,20816
70800,20325
71091,20325
" /> 
<polyline style="fill-rule:evenodd;"
points="70341,20325
70341,20816
70050,20816
70050,20325
70341,20325
" /> 
<polyline style="fill-rule:evenodd;"
points="68648,20166
68648,19675
68939,19675
68939,20166
68648,20166
" /> 
<polyline style="fill-rule:evenodd;"
points="69398,20166
69398,19675
69689,19675
69689,20166
69398,20166
" /> 
<polyline style="fill-rule:evenodd;"
points="69560,18813
69560,18272
70101,18272
70101,18813
69560,18813
" /> 
<circle cx="70830.7" cy="18543.3" r="270.472" /> 
<polyline style="fill-rule:evenodd;"
points="64641,21859
64641,21538
65082,21538
65082,21859
64641,21859
" /> 
<polyline style="fill-rule:evenodd;"
points="64641,22359
64641,22038
65082,22038
65082,22359
64641,22359
" /> 
<polyline style="fill-rule:evenodd;"
points="64641,23040
64641,22719
65082,22719
65082,23040
64641,23040
" /> 
<polyline style="fill-rule:evenodd;"
points="64641,23540
64641,23219
65082,23219
65082,23540
64641,23540
" /> 
<polyline style="fill-rule:evenodd;"
points="72411,20541
72746,20541
72746,20797
72411,20797
72411,20541
" /> 
<polyline style="fill-rule:evenodd;"
points="71545,20916
71880,20916
71880,21172
71545,21172
71545,20916
" /> 
<polyline style="fill-rule:evenodd;"
points="71545,20166
71880,20166
71880,20422
71545,20422
71545,20166
" /> 
<polyline style="fill-rule:evenodd;"
points="66930,28616
66930,28075
67471,28075
67471,28616
66930,28616
" /> 
<circle cx="68200.8" cy="28346.5" r="270.472" /> 
<circle cx="69200.8" cy="28346.5" r="270.472" /> 
<circle cx="70200.8" cy="28346.5" r="270.472" /> 
<polyline style="fill-rule:evenodd;"
points="71091,19439
71091,19930
70800,19930
70800,19439
71091,19439
" /> 
<polyline style="fill-rule:evenodd;"
points="70341,19439
70341,19930
70050,19930
70050,19439
70341,19439
" /> 
<polyline style="fill-rule:evenodd;"
points="40992,19557
40992,19066
41483,19066
41483,19557
40992,19557
" /> 
<circle cx="40238.2" cy="19311.6" r="245.472" /> 
<circle cx="40238.2" cy="20311.6" r="245.472" /> 
<polyline style="fill-rule:evenodd;"
points="39122,23315
39122,23181
40322,23181
40322,23315
39122,23315
" /> 
<polyline style="fill-rule:evenodd;"
points="39122,22815
39122,22681
40322,22681
40322,22815
39122,22815
" /> 
<polyline style="fill-rule:evenodd;"
points="39122,22315
39122,22181
40322,22181
40322,22315
39122,22315
" /> 
<polyline style="fill-rule:evenodd;"
points="39122,21815
39122,21681
40322,21681
40322,21815
39122,21815
" /> 
<polyline style="fill-rule:evenodd;"
points="39122,23815
39122,23681
40322,23681
40322,23815
39122,23815
" /> 
<polyline style="fill-rule:evenodd;"
points="39122,24315
39122,24181
40322,24181
40322,24315
39122,24315
" /> 
<polyline style="fill-rule:evenodd;"
points="39122,24815
39122,24681
40322,24681
40322,24815
39122,24815
" /> 
<polyline style="fill-rule:evenodd;"
points="39122,25315
39122,25181
40322,25181
40322,25315
39122,25315
" /> 
<polyline style="fill-rule:evenodd;"
points="39122,25815
39122,25681
40322,25681
40322,25815
39122,25815
" /> 
<polyline style="fill-rule:evenodd;"
points="39122,26315
39122,26181
40322,26181
40322,26315
39122,26315
" /> 
<polyline style="fill-rule:evenodd;"
points="43122,26315
43122,26181
44322,26181
44322,26315
43122,26315
" /> 
<polyline style="fill-rule:evenodd;"
points="43122,25815
43122,25681
44322,25681
44322,25815
43122,25815
" /> 
<polyline style="fill-rule:evenodd;"
points="43122,25315
43122,25181
44322,25181
44322,25315
43122,25315
" /> 
<polyline style="fill-rule:evenodd;"
points="43122,24815
43122,24681
44322,24681
44322,24815
43122,24815
" /> 
<polyline style="fill-rule:evenodd;"
points="43122,24315
43122,24181
44322,24181
44322,24315
43122,24315
" /> 
<polyline style="fill-rule:evenodd;"
points="43122,23815
43122,23681
44322,23681
44322,23815
43122,23815
" /> 
<polyline style="fill-rule:evenodd;"
points="43122,23315
43122,23181
44322,23181
44322,23315
43122,23315
" /> 
<polyline style="fill-rule:evenodd;"
points="43122,22815
43122,22681
44322,22681
44322,22815
43122,22815
" /> 
<polyline style="fill-rule:evenodd;"
points="43122,22315
43122,22181
44322,22181
44322,22315
43122,22315
" /> 
<polyline style="fill-rule:evenodd;"
points="43122,21815
43122,21681
44322,21681
44322,21815
43122,21815
" /> 
<polyline style="fill-rule:evenodd;"
points="38896,19959
38896,20450
38605,20450
38605,19959
38896,19959
" /> 
<polyline style="fill-rule:evenodd;"
points="38146,19959
38146,20450
37855,20450
37855,19959
38146,19959
" /> 
<polyline style="fill-rule:evenodd;"
points="37855,21336
37855,20845
38146,20845
38146,21336
37855,21336
" /> 
<polyline style="fill-rule:evenodd;"
points="38605,21336
38605,20845
38896,20845
38896,21336
38605,21336
" /> 
<polyline style="fill-rule:evenodd;"
points="41241,21509
41241,21018
41532,21018
41532,21509
41241,21509
" /> 
<polyline style="fill-rule:evenodd;"
points="41991,21509
41991,21018
42282,21018
42282,21509
41991,21509
" /> 
<polyline style="fill-rule:evenodd;"
points="38032,24113
38523,24113
38523,24404
38032,24404
38032,24113
" /> 
<polyline style="fill-rule:evenodd;"
points="38032,24863
38523,24863
38523,25154
38032,25154
38032,24863
" /> 
<polyline style="fill-rule:evenodd;"
points="44112,20451
44112,20942
43822,20942
43822,20451
44112,20451
" /> 
<polyline style="fill-rule:evenodd;"
points="43362,20451
43362,20942
43072,20942
43072,20451
43362,20451
" /> 
<polyline style="fill-rule:evenodd;"
points="41670,20293
41670,19802
41961,19802
41961,20293
41670,20293
" /> 
<polyline style="fill-rule:evenodd;"
points="42420,20293
42420,19802
42711,19802
42711,20293
42420,20293
" /> 
<polyline style="fill-rule:evenodd;"
points="42581,18940
42581,18399
43122,18399
43122,18940
42581,18940
" /> 
<circle cx="43852.4" cy="18669.8" r="270.472" /> 
<polyline style="fill-rule:evenodd;"
points="37663,21985
37663,21664
38104,21664
38104,21985
37663,21985
" /> 
<polyline style="fill-rule:evenodd;"
points="37663,22485
37663,22164
38104,22164
38104,22485
37663,22485
" /> 
<polyline style="fill-rule:evenodd;"
points="37663,23166
37663,22845
38104,22845
38104,23166
37663,23166
" /> 
<polyline style="fill-rule:evenodd;"
points="37663,23666
37663,23345
38104,23345
38104,23666
37663,23666
" /> 
<polyline style="fill-rule:evenodd;"
points="45432,20667
45767,20667
45767,20923
45432,20923
45432,20667
" /> 
<polyline style="fill-rule:evenodd;"
points="44566,21042
44901,21042
44901,21298
44566,21298
44566,21042
" /> 
<polyline style="fill-rule:evenodd;"
points="44566,20292
44901,20292
44901,20548
44566,20548
44566,20292
" /> 
<polyline style="fill-rule:evenodd;"
points="39951,28743
39951,28202
40492,28202
40492,28743
39951,28743
" /> 
<circle cx="41222.4" cy="28473" r="270.472" /> 
<circle cx="42222.4" cy="28473" r="270.472" /> 
<circle cx="43222.4" cy="28473" r="270.472" /> 
<polyline style="fill-rule:evenodd;"
points="44112,19566
44112,20057
43822,20057
43822,19566
44112,19566
" /> 
<polyline style="fill-rule:evenodd;"
points="43362,19566
43362,20057
43072,20057
43072,19566
43362,19566
" /> 
<polyline style="fill-rule:evenodd;"
points="49860,19430
49860,18939
50351,18939
50351,19430
49860,19430
" /> 
<circle cx="49106.3" cy="19185" r="245.472" /> 
<circle cx="49106.3" cy="20185" r="245.472" /> 
<polyline style="fill-rule:evenodd;"
points="47990,23188
47990,23055
49190,23055
49190,23188
47990,23188
" /> 
<polyline style="fill-rule:evenodd;"
points="47990,22688
47990,22555
49190,22555
49190,22688
47990,22688
" /> 
<polyline style="fill-rule:evenodd;"
points="47990,22188
47990,22055
49190,22055
49190,22188
47990,22188
" /> 
<polyline style="fill-rule:evenodd;"
points="47990,21688
47990,21555
49190,21555
49190,21688
47990,21688
" /> 
<polyline style="fill-rule:evenodd;"
points="47990,23688
47990,23555
49190,23555
49190,23688
47990,23688
" /> 
<polyline style="fill-rule:evenodd;"
points="47990,24188
47990,24055
49190,24055
49190,24188
47990,24188
" /> 
<polyline style="fill-rule:evenodd;"
points="47990,24688
47990,24555
49190,24555
49190,24688
47990,24688
" /> 
<polyline style="fill-rule:evenodd;"
points="47990,25188
47990,25055
49190,25055
49190,25188
47990,25188
" /> 
<polyline style="fill-rule:evenodd;"
points="47990,25688
47990,25555
49190,25555
49190,25688
47990,25688
" /> 
<polyline style="fill-rule:evenodd;"
points="47990,26188
47990,26055
49190,26055
49190,26188
47990,26188
" /> 
<polyline style="fill-rule:evenodd;"
points="51990,26188
51990,26055
53190,26055
53190,26188
51990,26188
" /> 
<polyline style="fill-rule:evenodd;"
points="51990,25688
51990,25555
53190,25555
53190,25688
51990,25688
" /> 
<polyline style="fill-rule:evenodd;"
points="51990,25188
51990,25055
53190,25055
53190,25188
51990,25188
" /> 
<polyline style="fill-rule:evenodd;"
points="51990,24688
51990,24555
53190,24555
53190,24688
51990,24688
" /> 
<polyline style="fill-rule:evenodd;"
points="51990,24188
51990,24055
53190,24055
53190,24188
51990,24188
" /> 
<polyline style="fill-rule:evenodd;"
points="51990,23688
51990,23555
53190,23555
53190,23688
51990,23688
" /> 
<polyline style="fill-rule:evenodd;"
points="51990,23188
51990,23055
53190,23055
53190,23188
51990,23188
" /> 
<polyline style="fill-rule:evenodd;"
points="51990,22688
51990,22555
53190,22555
53190,22688
51990,22688
" /> 
<polyline style="fill-rule:evenodd;"
points="51990,22188
51990,22055
53190,22055
53190,22188
51990,22188
" /> 
<polyline style="fill-rule:evenodd;"
points="51990,21688
51990,21555
53190,21555
53190,21688
51990,21688
" /> 
<polyline style="fill-rule:evenodd;"
points="47764,19833
47764,20324
47473,20324
47473,19833
47764,19833
" /> 
<polyline style="fill-rule:evenodd;"
points="47014,19833
47014,20324
46723,20324
46723,19833
47014,19833
" /> 
<polyline style="fill-rule:evenodd;"
points="46723,21210
46723,20719
47014,20719
47014,21210
46723,21210
" /> 
<polyline style="fill-rule:evenodd;"
points="47473,21210
47473,20719
47764,20719
47764,21210
47473,21210
" /> 
<polyline style="fill-rule:evenodd;"
points="50109,21383
50109,20892
50400,20892
50400,21383
50109,21383
" /> 
<polyline style="fill-rule:evenodd;"
points="50859,21383
50859,20892
51150,20892
51150,21383
50859,21383
" /> 
<polyline style="fill-rule:evenodd;"
points="46900,23987
47391,23987
47391,24278
46900,24278
46900,23987
" /> 
<polyline style="fill-rule:evenodd;"
points="46900,24737
47391,24737
47391,25028
46900,25028
46900,24737
" /> 
<polyline style="fill-rule:evenodd;"
points="52981,20325
52981,20816
52690,20816
52690,20325
52981,20325
" /> 
<polyline style="fill-rule:evenodd;"
points="52231,20325
52231,20816
51940,20816
51940,20325
52231,20325
" /> 
<polyline style="fill-rule:evenodd;"
points="50538,20166
50538,19675
50829,19675
50829,20166
50538,20166
" /> 
<polyline style="fill-rule:evenodd;"
points="51288,20166
51288,19675
51579,19675
51579,20166
51288,20166
" /> 
<polyline style="fill-rule:evenodd;"
points="51450,18813
51450,18272
51990,18272
51990,18813
51450,18813
" /> 
<circle cx="52720.5" cy="18543.3" r="270.472" /> 
<polyline style="fill-rule:evenodd;"
points="46531,21859
46531,21538
46972,21538
46972,21859
46531,21859
" /> 
<polyline style="fill-rule:evenodd;"
points="46531,22359
46531,22038
46972,22038
46972,22359
46531,22359
" /> 
<polyline style="fill-rule:evenodd;"
points="46531,23040
46531,22719
46972,22719
46972,23040
46531,23040
" /> 
<polyline style="fill-rule:evenodd;"
points="46531,23540
46531,23219
46972,23219
46972,23540
46531,23540
" /> 
<polyline style="fill-rule:evenodd;"
points="54300,20541
54635,20541
54635,20797
54300,20797
54300,20541
" /> 
<polyline style="fill-rule:evenodd;"
points="53434,20916
53769,20916
53769,21172
53434,21172
53434,20916
" /> 
<polyline style="fill-rule:evenodd;"
points="53434,20166
53769,20166
53769,20422
53434,20422
53434,20166
" /> 
<polyline style="fill-rule:evenodd;"
points="48820,28616
48820,28075
49361,28075
49361,28616
48820,28616
" /> 
<circle cx="50090.6" cy="28346.5" r="270.472" /> 
<circle cx="51090.6" cy="28346.5" r="270.472" /> 
<circle cx="52090.6" cy="28346.5" r="270.472" /> 
<polyline style="fill-rule:evenodd;"
points="52981,19439
52981,19930
52690,19930
52690,19439
52981,19439
" /> 
<polyline style="fill-rule:evenodd;"
points="52231,19439
52231,19930
51940,19930
51940,19439
52231,19439
" /> 
<polyline style="fill-rule:evenodd;"
points="40992,19557
40992,19066
41483,19066
41483,19557
40992,19557
" /> 
<circle cx="40238.2" cy="19311.6" r="245.472" /> 
<circle cx="40238.2" cy="20311.6" r="245.472" /> 
<polyline style="fill-rule:evenodd;"
points="39122,23315
39122,23181
40322,23181
40322,23315
39122,23315
" /> 
<polyline style="fill-rule:evenodd;"
points="39122,22815
39122,22681
40322,22681
40322,22815
39122,22815
" /> 
<polyline style="fill-rule:evenodd;"
points="39122,22315
39122,22181
40322,22181
40322,22315
39122,22315
" /> 
<polyline style="fill-rule:evenodd;"
points="39122,21815
39122,21681
40322,21681
40322,21815
39122,21815
" /> 
<polyline style="fill-rule:evenodd;"
points="39122,23815
39122,23681
40322,23681
40322,23815
39122,23815
" /> 
<polyline style="fill-rule:evenodd;"
points="39122,24315
39122,24181
40322,24181
40322,24315
39122,24315
" /> 
<polyline style="fill-rule:evenodd;"
points="39122,24815
39122,24681
40322,24681
40322,24815
39122,24815
" /> 
<polyline style="fill-rule:evenodd;"
points="39122,25315
39122,25181
40322,25181
40322,25315
39122,25315
" /> 
<polyline style="fill-rule:evenodd;"
points="39122,25815
39122,25681
40322,25681
40322,25815
39122,25815
" /> 
<polyline style="fill-rule:evenodd;"
points="39122,26315
39122,26181
40322,26181
40322,26315
39122,26315
" /> 
<polyline style="fill-rule:evenodd;"
points="43122,26315
43122,26181
44322,26181
44322,26315
43122,26315
" /> 
<polyline style="fill-rule:evenodd;"
points="43122,25815
43122,25681
44322,25681
44322,25815
43122,25815
" /> 
<polyline style="fill-rule:evenodd;"
points="43122,25315
43122,25181
44322,25181
44322,25315
43122,25315
" /> 
<polyline style="fill-rule:evenodd;"
points="43122,24815
43122,24681
44322,24681
44322,24815
43122,24815
" /> 
<polyline style="fill-rule:evenodd;"
points="43122,24315
43122,24181
44322,24181
44322,24315
43122,24315
" /> 
<polyline style="fill-rule:evenodd;"
points="43122,23815
43122,23681
44322,23681
44322,23815
43122,23815
" /> 
<polyline style="fill-rule:evenodd;"
points="43122,23315
43122,23181
44322,23181
44322,23315
43122,23315
" /> 
<polyline style="fill-rule:evenodd;"
points="43122,22815
43122,22681
44322,22681
44322,22815
43122,22815
" /> 
<polyline style="fill-rule:evenodd;"
points="43122,22315
43122,22181
44322,22181
44322,22315
43122,22315
" /> 
<polyline style="fill-rule:evenodd;"
points="43122,21815
43122,21681
44322,21681
44322,21815
43122,21815
" /> 
<polyline style="fill-rule:evenodd;"
points="38896,19959
38896,20450
38605,20450
38605,19959
38896,19959
" /> 
<polyline style="fill-rule:evenodd;"
points="38146,19959
38146,20450
37855,20450
37855,19959
38146,19959
" /> 
<polyline style="fill-rule:evenodd;"
points="37855,21336
37855,20845
38146,20845
38146,21336
37855,21336
" /> 
<polyline style="fill-rule:evenodd;"
points="38605,21336
38605,20845
38896,20845
38896,21336
38605,21336
" /> 
<polyline style="fill-rule:evenodd;"
points="41241,21509
41241,21018
41532,21018
41532,21509
41241,21509
" /> 
<polyline style="fill-rule:evenodd;"
points="41991,21509
41991,21018
42282,21018
42282,21509
41991,21509
" /> 
<polyline style="fill-rule:evenodd;"
points="38032,24113
38523,24113
38523,24404
38032,24404
38032,24113
" /> 
<polyline style="fill-rule:evenodd;"
points="38032,24863
38523,24863
38523,25154
38032,25154
38032,24863
" /> 
<polyline style="fill-rule:evenodd;"
points="44112,20451
44112,20942
43822,20942
43822,20451
44112,20451
" /> 
<polyline style="fill-rule:evenodd;"
points="43362,20451
43362,20942
43072,20942
43072,20451
43362,20451
" /> 
<polyline style="fill-rule:evenodd;"
points="41670,20293
41670,19802
41961,19802
41961,20293
41670,20293
" /> 
<polyline style="fill-rule:evenodd;"
points="42420,20293
42420,19802
42711,19802
42711,20293
42420,20293
" /> 
<polyline style="fill-rule:evenodd;"
points="42581,18940
42581,18399
43122,18399
43122,18940
42581,18940
" /> 
<circle cx="43852.4" cy="18669.8" r="270.472" /> 
<polyline style="fill-rule:evenodd;"
points="37663,21985
37663,21664
38104,21664
38104,21985
37663,21985
" /> 
<polyline style="fill-rule:evenodd;"
points="37663,22485
37663,22164
38104,22164
38104,22485
37663,22485
" /> 
<polyline style="fill-rule:evenodd;"
points="37663,23166
37663,22845
38104,22845
38104,23166
37663,23166
" /> 
<polyline style="fill-rule:evenodd;"
points="37663,23666
37663,23345
38104,23345
38104,23666
37663,23666
" /> 
<polyline style="fill-rule:evenodd;"
points="45432,20667
45767,20667
45767,20923
45432,20923
45432,20667
" /> 
<polyline style="fill-rule:evenodd;"
points="44566,21042
44901,21042
44901,21298
44566,21298
44566,21042
" /> 
<polyline style="fill-rule:evenodd;"
points="44566,20292
44901,20292
44901,20548
44566,20548
44566,20292
" /> 
<polyline style="fill-rule:evenodd;"
points="39951,28743
39951,28202
40492,28202
40492,28743
39951,28743
" /> 
<circle cx="41222.4" cy="28473" r="270.472" /> 
<circle cx="42222.4" cy="28473" r="270.472" /> 
<circle cx="43222.4" cy="28473" r="270.472" /> 
<polyline style="fill-rule:evenodd;"
points="44112,19566
44112,20057
43822,20057
43822,19566
44112,19566
" /> 
<polyline style="fill-rule:evenodd;"
points="43362,19566
43362,20057
43072,20057
43072,19566
43362,19566
" /> 
<polyline style="fill-rule:evenodd;"
points="49860,19430
49860,18939
50351,18939
50351,19430
49860,19430
" /> 
<circle cx="49106.3" cy="19185" r="245.472" /> 
<circle cx="49106.3" cy="20185" r="245.472" /> 
<polyline style="fill-rule:evenodd;"
points="47990,23188
47990,23055
49190,23055
49190,23188
47990,23188
" /> 
<polyline style="fill-rule:evenodd;"
points="47990,22688
47990,22555
49190,22555
49190,22688
47990,22688
" /> 
<polyline style="fill-rule:evenodd;"
points="47990,22188
47990,22055
49190,22055
49190,22188
47990,22188
" /> 
<polyline style="fill-rule:evenodd;"
points="47990,21688
47990,21555
49190,21555
49190,21688
47990,21688
" /> 
<polyline style="fill-rule:evenodd;"
points="47990,23688
47990,23555
49190,23555
49190,23688
47990,23688
" /> 
<polyline style="fill-rule:evenodd;"
points="47990,24188
47990,24055
49190,24055
49190,24188
47990,24188
" /> 
<polyline style="fill-rule:evenodd;"
points="47990,24688
47990,24555
49190,24555
49190,24688
47990,24688
" /> 
<polyline style="fill-rule:evenodd;"
points="47990,25188
47990,25055
49190,25055
49190,25188
47990,25188
" /> 
<polyline style="fill-rule:evenodd;"
points="47990,25688
47990,25555
49190,25555
49190,25688
47990,25688
" /> 
<polyline style="fill-rule:evenodd;"
points="47990,26188
47990,26055
49190,26055
49190,26188
47990,26188
" /> 
<polyline style="fill-rule:evenodd;"
points="51990,26188
51990,26055
53190,26055
53190,26188
51990,26188
" /> 
<polyline style="fill-rule:evenodd;"
points="51990,25688
51990,25555
53190,25555
53190,25688
51990,25688
" /> 
<polyline style="fill-rule:evenodd;"
points="51990,25188
51990,25055
53190,25055
53190,25188
51990,25188
" /> 
<polyline style="fill-rule:evenodd;"
points="51990,24688
51990,24555
53190,24555
53190,24688
51990,24688
" /> 
<polyline style="fill-rule:evenodd;"
points="51990,24188
51990,24055
53190,24055
53190,24188
51990,24188
" /> 
<polyline style="fill-rule:evenodd;"
points="51990,23688
51990,23555
53190,23555
53190,23688
51990,23688
" /> 
<polyline style="fill-rule:evenodd;"
points="51990,23188
51990,23055
53190,23055
53190,23188
51990,23188
" /> 
<polyline style="fill-rule:evenodd;"
points="51990,22688
51990,22555
53190,22555
53190,22688
51990,22688
" /> 
<polyline style="fill-rule:evenodd;"
points="51990,22188
51990,22055
53190,22055
53190,22188
51990,22188
" /> 
<polyline style="fill-rule:evenodd;"
points="51990,21688
51990,21555
53190,21555
53190,21688
51990,21688
" /> 
<polyline style="fill-rule:evenodd;"
points="47764,19833
47764,20324
47473,20324
47473,19833
47764,19833
" /> 
<polyline style="fill-rule:evenodd;"
points="47014,19833
47014,20324
46723,20324
46723,19833
47014,19833
" /> 
<polyline style="fill-rule:evenodd;"
points="46723,21210
46723,20719
47014,20719
47014,21210
46723,21210
" /> 
<polyline style="fill-rule:evenodd;"
points="47473,21210
47473,20719
47764,20719
47764,21210
47473,21210
" /> 
<polyline style="fill-rule:evenodd;"
points="50109,21383
50109,20892
50400,20892
50400,21383
50109,21383
" /> 
<polyline style="fill-rule:evenodd;"
points="50859,21383
50859,20892
51150,20892
51150,21383
50859,21383
" /> 
<polyline style="fill-rule:evenodd;"
points="46900,23987
47391,23987
47391,24278
46900,24278
46900,23987
" /> 
<polyline style="fill-rule:evenodd;"
points="46900,24737
47391,24737
47391,25028
46900,25028
46900,24737
" /> 
<polyline style="fill-rule:evenodd;"
points="52981,20325
52981,20816
52690,20816
52690,20325
52981,20325
" /> 
<polyline style="fill-rule:evenodd;"
points="52231,20325
52231,20816
51940,20816
51940,20325
52231,20325
" /> 
<polyline style="fill-rule:evenodd;"
points="50538,20166
50538,19675
50829,19675
50829,20166
50538,20166
" /> 
<polyline style="fill-rule:evenodd;"
points="51288,20166
51288,19675
51579,19675
51579,20166
51288,20166
" /> 
<polyline style="fill-rule:evenodd;"
points="51450,18813
51450,18272
51990,18272
51990,18813
51450,18813
" /> 
<circle cx="52720.5" cy="18543.3" r="270.472" /> 
<polyline style="fill-rule:evenodd;"
points="46531,21859
46531,21538
46972,21538
46972,21859
46531,21859
" /> 
<polyline style="fill-rule:evenodd;"
points="46531,22359
46531,22038
46972,22038
46972,22359
46531,22359
" /> 
<polyline style="fill-rule:evenodd;"
points="46531,23040
46531,22719
46972,22719
46972,23040
46531,23040
" /> 
<polyline style="fill-rule:evenodd;"
points="46531,23540
46531,23219
46972,23219
46972,23540
46531,23540
" /> 
<polyline style="fill-rule:evenodd;"
points="54300,20541
54635,20541
54635,20797
54300,20797
54300,20541
" /> 
<polyline style="fill-rule:evenodd;"
points="53434,20916
53769,20916
53769,21172
53434,21172
53434,20916
" /> 
<polyline style="fill-rule:evenodd;"
points="53434,20166
53769,20166
53769,20422
53434,20422
53434,20166
" /> 
<polyline style="fill-rule:evenodd;"
points="48820,28616
48820,28075
49361,28075
49361,28616
48820,28616
" /> 
<circle cx="50090.6" cy="28346.5" r="270.472" /> 
<circle cx="51090.6" cy="28346.5" r="270.472" /> 
<circle cx="52090.6" cy="28346.5" r="270.472" /> 
<polyline style="fill-rule:evenodd;"
points="52981,19439
52981,19930
52690,19930
52690,19439
52981,19439
" /> 
<polyline style="fill-rule:evenodd;"
points="52231,19439
52231,19930
51940,19930
51940,19439
52231,19439
" /> 
<polyline style="fill-rule:evenodd;"
points="58915,19430
58915,18939
59406,18939
59406,19430
58915,19430
" /> 
<circle cx="58161.4" cy="19185" r="245.472" /> 
<circle cx="58161.4" cy="20185" r="245.472" /> 
<polyline style="fill-rule:evenodd;"
points="57045,23188
57045,23055
58246,23055
58246,23188
57045,23188
" /> 
<polyline style="fill-rule:evenodd;"
points="57045,22688
57045,22555
58246,22555
58246,22688
57045,22688
" /> 
<polyline style="fill-rule:evenodd;"
points="57045,22188
57045,22055
58246,22055
58246,22188
57045,22188
" /> 
<polyline style="fill-rule:evenodd;"
points="57045,21688
57045,21555
58246,21555
58246,21688
57045,21688
" /> 
<polyline style="fill-rule:evenodd;"
points="57045,23688
57045,23555
58246,23555
58246,23688
57045,23688
" /> 
<polyline style="fill-rule:evenodd;"
points="57045,24188
57045,24055
58246,24055
58246,24188
57045,24188
" /> 
<polyline style="fill-rule:evenodd;"
points="57045,24688
57045,24555
58246,24555
58246,24688
57045,24688
" /> 
<polyline style="fill-rule:evenodd;"
points="57045,25188
57045,25055
58246,25055
58246,25188
57045,25188
" /> 
<polyline style="fill-rule:evenodd;"
points="57045,25688
57045,25555
58246,25555
58246,25688
57045,25688
" /> 
<polyline style="fill-rule:evenodd;"
points="57045,26188
57045,26055
58246,26055
58246,26188
57045,26188
" /> 
<polyline style="fill-rule:evenodd;"
points="61045,26188
61045,26055
62246,26055
62246,26188
61045,26188
" /> 
<polyline style="fill-rule:evenodd;"
points="61045,25688
61045,25555
62246,25555
62246,25688
61045,25688
" /> 
<polyline style="fill-rule:evenodd;"
points="61045,25188
61045,25055
62246,25055
62246,25188
61045,25188
" /> 
<polyline style="fill-rule:evenodd;"
points="61045,24688
61045,24555
62246,24555
62246,24688
61045,24688
" /> 
<polyline style="fill-rule:evenodd;"
points="61045,24188
61045,24055
62246,24055
62246,24188
61045,24188
" /> 
<polyline style="fill-rule:evenodd;"
points="61045,23688
61045,23555
62246,23555
62246,23688
61045,23688
" /> 
<polyline style="fill-rule:evenodd;"
points="61045,23188
61045,23055
62246,23055
62246,23188
61045,23188
" /> 
<polyline style="fill-rule:evenodd;"
points="61045,22688
61045,22555
62246,22555
62246,22688
61045,22688
" /> 
<polyline style="fill-rule:evenodd;"
points="61045,22188
61045,22055
62246,22055
62246,22188
61045,22188
" /> 
<polyline style="fill-rule:evenodd;"
points="61045,21688
61045,21555
62246,21555
62246,21688
61045,21688
" /> 
<polyline style="fill-rule:evenodd;"
points="56819,19833
56819,20324
56528,20324
56528,19833
56819,19833
" /> 
<polyline style="fill-rule:evenodd;"
points="56069,19833
56069,20324
55778,20324
55778,19833
56069,19833
" /> 
<polyline style="fill-rule:evenodd;"
points="55778,21210
55778,20719
56069,20719
56069,21210
55778,21210
" /> 
<polyline style="fill-rule:evenodd;"
points="56528,21210
56528,20719
56819,20719
56819,21210
56528,21210
" /> 
<polyline style="fill-rule:evenodd;"
points="59164,21383
59164,20892
59455,20892
59455,21383
59164,21383
" /> 
<polyline style="fill-rule:evenodd;"
points="59914,21383
59914,20892
60205,20892
60205,21383
59914,21383
" /> 
<polyline style="fill-rule:evenodd;"
points="55955,23987
56446,23987
56446,24278
55955,24278
55955,23987
" /> 
<polyline style="fill-rule:evenodd;"
points="55955,24737
56446,24737
56446,25028
55955,25028
55955,24737
" /> 
<polyline style="fill-rule:evenodd;"
points="62036,20325
62036,20816
61745,20816
61745,20325
62036,20325
" /> 
<polyline style="fill-rule:evenodd;"
points="61286,20325
61286,20816
60995,20816
60995,20325
61286,20325
" /> 
<polyline style="fill-rule:evenodd;"
points="59593,20166
59593,19675
59884,19675
59884,20166
59593,20166
" /> 
<polyline style="fill-rule:evenodd;"
points="60343,20166
60343,19675
60634,19675
60634,20166
60343,20166
" /> 
<polyline style="fill-rule:evenodd;"
points="60505,18813
60505,18272
61046,18272
61046,18813
60505,18813
" /> 
<circle cx="61775.6" cy="18543.3" r="270.472" /> 
<polyline style="fill-rule:evenodd;"
points="55586,21859
55586,21538
56027,21538
56027,21859
55586,21859
" /> 
<polyline style="fill-rule:evenodd;"
points="55586,22359
55586,22038
56027,22038
56027,22359
55586,22359
" /> 
<polyline style="fill-rule:evenodd;"
points="55586,23040
55586,22719
56027,22719
56027,23040
55586,23040
" /> 
<polyline style="fill-rule:evenodd;"
points="55586,23540
55586,23219
56027,23219
56027,23540
55586,23540
" /> 
<polyline style="fill-rule:evenodd;"
points="63356,20541
63691,20541
63691,20797
63356,20797
63356,20541
" /> 
<polyline style="fill-rule:evenodd;"
points="62490,20916
62825,20916
62825,21172
62490,21172
62490,20916
" /> 
<polyline style="fill-rule:evenodd;"
points="62490,20166
62825,20166
62825,20422
62490,20422
62490,20166
" /> 
<polyline style="fill-rule:evenodd;"
points="57875,28616
57875,28075
58416,28075
58416,28616
57875,28616
" /> 
<circle cx="59145.7" cy="28346.5" r="270.472" /> 
<circle cx="60145.7" cy="28346.5" r="270.472" /> 
<circle cx="61145.7" cy="28346.5" r="270.472" /> 
<polyline style="fill-rule:evenodd;"
points="62036,19439
62036,19930
61745,19930
61745,19439
62036,19439
" /> 
<polyline style="fill-rule:evenodd;"
points="61286,19439
61286,19930
60995,19930
60995,19439
61286,19439
" /> 
<polyline style="fill-rule:evenodd;"
points="67971,19430
67971,18939
68462,18939
68462,19430
67971,19430
" /> 
<circle cx="67216.5" cy="19185" r="245.472" /> 
<circle cx="67216.5" cy="20185" r="245.472" /> 
<polyline style="fill-rule:evenodd;"
points="66100,23188
66100,23055
67301,23055
67301,23188
66100,23188
" /> 
<polyline style="fill-rule:evenodd;"
points="66100,22688
66100,22555
67301,22555
67301,22688
66100,22688
" /> 
<polyline style="fill-rule:evenodd;"
points="66100,22188
66100,22055
67301,22055
67301,22188
66100,22188
" /> 
<polyline style="fill-rule:evenodd;"
points="66100,21688
66100,21555
67301,21555
67301,21688
66100,21688
" /> 
<polyline style="fill-rule:evenodd;"
points="66100,23688
66100,23555
67301,23555
67301,23688
66100,23688
" /> 
<polyline style="fill-rule:evenodd;"
points="66100,24188
66100,24055
67301,24055
67301,24188
66100,24188
" /> 
<polyline style="fill-rule:evenodd;"
points="66100,24688
66100,24555
67301,24555
67301,24688
66100,24688
" /> 
<polyline style="fill-rule:evenodd;"
points="66100,25188
66100,25055
67301,25055
67301,25188
66100,25188
" /> 
<polyline style="fill-rule:evenodd;"
points="66100,25688
66100,25555
67301,25555
67301,25688
66100,25688
" /> 
<polyline style="fill-rule:evenodd;"
points="66100,26188
66100,26055
67301,26055
67301,26188
66100,26188
" /> 
<polyline style="fill-rule:evenodd;"
points="70100,26188
70100,26055
71301,26055
71301,26188
70100,26188
" /> 
<polyline style="fill-rule:evenodd;"
points="70100,25688
70100,25555
71301,25555
71301,25688
70100,25688
" /> 
<polyline style="fill-rule:evenodd;"
points="70100,25188
70100,25055
71301,25055
71301,25188
70100,25188
" /> 
<polyline style="fill-rule:evenodd;"
points="70100,24688
70100,24555
71301,24555
71301,24688
70100,24688
" /> 
<polyline style="fill-rule:evenodd;"
points="70100,24188
70100,24055
71301,24055
71301,24188
70100,24188
" /> 
<polyline style="fill-rule:evenodd;"
points="70100,23688
70100,23555
71301,23555
71301,23688
70100,23688
" /> 
<polyline style="fill-rule:evenodd;"
points="70100,23188
70100,23055
71301,23055
71301,23188
70100,23188
" /> 
<polyline style="fill-rule:evenodd;"
points="70100,22688
70100,22555
71301,22555
71301,22688
70100,22688
" /> 
<polyline style="fill-rule:evenodd;"
points="70100,22188
70100,22055
71301,22055
71301,22188
70100,22188
" /> 
<polyline style="fill-rule:evenodd;"
points="70100,21688
70100,21555
71301,21555
71301,21688
70100,21688
" /> 
<polyline style="fill-rule:evenodd;"
points="65874,19833
65874,20324
65583,20324
65583,19833
65874,19833
" /> 
<polyline style="fill-rule:evenodd;"
points="65124,19833
65124,20324
64833,20324
64833,19833
65124,19833
" /> 
<polyline style="fill-rule:evenodd;"
points="64833,21210
64833,20719
65124,20719
65124,21210
64833,21210
" /> 
<polyline style="fill-rule:evenodd;"
points="65583,21210
65583,20719
65874,20719
65874,21210
65583,21210
" /> 
<polyline style="fill-rule:evenodd;"
points="68219,21383
68219,20892
68510,20892
68510,21383
68219,21383
" /> 
<polyline style="fill-rule:evenodd;"
points="68969,21383
68969,20892
69260,20892
69260,21383
68969,21383
" /> 
<polyline style="fill-rule:evenodd;"
points="65010,23987
65501,23987
65501,24278
65010,24278
65010,23987
" /> 
<polyline style="fill-rule:evenodd;"
points="65010,24737
65501,24737
65501,25028
65010,25028
65010,24737
" /> 
<polyline style="fill-rule:evenodd;"
points="71091,20325
71091,20816
70800,20816
70800,20325
71091,20325
" /> 
<polyline style="fill-rule:evenodd;"
points="70341,20325
70341,20816
70050,20816
70050,20325
70341,20325
" /> 
<polyline style="fill-rule:evenodd;"
points="68648,20166
68648,19675
68939,19675
68939,20166
68648,20166
" /> 
<polyline style="fill-rule:evenodd;"
points="69398,20166
69398,19675
69689,19675
69689,20166
69398,20166
" /> 
<polyline style="fill-rule:evenodd;"
points="69560,18813
69560,18272
70101,18272
70101,18813
69560,18813
" /> 
<circle cx="70830.7" cy="18543.3" r="270.472" /> 
<polyline style="fill-rule:evenodd;"
points="64641,21859
64641,21538
65082,21538
65082,21859
64641,21859
" /> 
<polyline style="fill-rule:evenodd;"
points="64641,22359
64641,22038
65082,22038
65082,22359
64641,22359
" /> 
<polyline style="fill-rule:evenodd;"
points="64641,23040
64641,22719
65082,22719
65082,23040
64641,23040
" /> 
<polyline style="fill-rule:evenodd;"
points="64641,23540
64641,23219
65082,23219
65082,23540
64641,23540
" /> 
<polyline style="fill-rule:evenodd;"
points="72411,20541
72746,20541
72746,20797
72411,20797
72411,20541
" /> 
<polyline style="fill-rule:evenodd;"
points="71545,20916
71880,20916
71880,21172
71545,21172
71545,20916
" /> 
<polyline style="fill-rule:evenodd;"
points="71545,20166
71880,20166
71880,20422
71545,20422
71545,20166
" /> 
<polyline style="fill-rule:evenodd;"
points="66930,28616
66930,28075
67471,28075
67471,28616
66930,28616
" /> 
<circle cx="68200.8" cy="28346.5" r="270.472" /> 
<circle cx="69200.8" cy="28346.5" r="270.472" /> 
<circle cx="70200.8" cy="28346.5" r="270.472" /> 
<polyline style="fill-rule:evenodd;"
points="71091,19439
71091,19930
70800,19930
70800,19439
71091,19439
" /> 
<polyline style="fill-rule:evenodd;"
points="70341,19439
70341,19930
70050,19930
70050,19439
70341,19439
" /> 
<polyline style="fill-rule:evenodd;"
points="40992,19557
40992,19066
41483,19066
41483,19557
40992,19557
" /> 
<circle cx="40238.2" cy="19311.6" r="245.472" /> 
<circle cx="40238.2" cy="20311.6" r="245.472" /> 
<polyline style="fill-rule:evenodd;"
points="39122,23315
39122,23181
40322,23181
40322,23315
39122,23315
" /> 
<polyline style="fill-rule:evenodd;"
points="39122,22815
39122,22681
40322,22681
40322,22815
39122,22815
" /> 
<polyline style="fill-rule:evenodd;"
points="39122,22315
39122,22181
40322,22181
40322,22315
39122,22315
" /> 
<polyline style="fill-rule:evenodd;"
points="39122,21815
39122,21681
40322,21681
40322,21815
39122,21815
" /> 
<polyline style="fill-rule:evenodd;"
points="39122,23815
39122,23681
40322,23681
40322,23815
39122,23815
" /> 
<polyline style="fill-rule:evenodd;"
points="39122,24315
39122,24181
40322,24181
40322,24315
39122,24315
" /> 
<polyline style="fill-rule:evenodd;"
points="39122,24815
39122,24681
40322,24681
40322,24815
39122,24815
" /> 
<polyline style="fill-rule:evenodd;"
points="39122,25315
39122,25181
40322,25181
40322,25315
39122,25315
" /> 
<polyline style="fill-rule:evenodd;"
points="39122,25815
39122,25681
40322,25681
40322,25815
39122,25815
" /> 
<polyline style="fill-rule:evenodd;"
points="39122,26315
39122,26181
40322,26181
40322,26315
39122,26315
" /> 
<polyline style="fill-rule:evenodd;"
points="43122,26315
43122,26181
44322,26181
44322,26315
43122,26315
" /> 
<polyline style="fill-rule:evenodd;"
points="43122,25815
43122,25681
44322,25681
44322,25815
43122,25815
" /> 
<polyline style="fill-rule:evenodd;"
points="43122,25315
43122,25181
44322,25181
44322,25315
43122,25315
" /> 
<polyline style="fill-rule:evenodd;"
points="43122,24815
43122,24681
44322,24681
44322,24815
43122,24815
" /> 
<polyline style="fill-rule:evenodd;"
points="43122,24315
43122,24181
44322,24181
44322,24315
43122,24315
" /> 
<polyline style="fill-rule:evenodd;"
points="43122,23815
43122,23681
44322,23681
44322,23815
43122,23815
" /> 
<polyline style="fill-rule:evenodd;"
points="43122,23315
43122,23181
44322,23181
44322,23315
43122,23315
" /> 
<polyline style="fill-rule:evenodd;"
points="43122,22815
43122,22681
44322,22681
44322,22815
43122,22815
" /> 
<polyline style="fill-rule:evenodd;"
points="43122,22315
43122,22181
44322,22181
44322,22315
43122,22315
" /> 
<polyline style="fill-rule:evenodd;"
points="43122,21815
43122,21681
44322,21681
44322,21815
43122,21815
" /> 
<polyline style="fill-rule:evenodd;"
points="38896,19959
38896,20450
38605,20450
38605,19959
38896,19959
" /> 
<polyline style="fill-rule:evenodd;"
points="38146,19959
38146,20450
37855,20450
37855,19959
38146,19959
" /> 
<polyline style="fill-rule:evenodd;"
points="37855,21336
37855,20845
38146,20845
38146,21336
37855,21336
" /> 
<polyline style="fill-rule:evenodd;"
points="38605,21336
38605,20845
38896,20845
38896,21336
38605,21336
" /> 
<polyline style="fill-rule:evenodd;"
points="41241,21509
41241,21018
41532,21018
41532,21509
41241,21509
" /> 
<polyline style="fill-rule:evenodd;"
points="41991,21509
41991,21018
42282,21018
42282,21509
41991,21509
" /> 
<polyline style="fill-rule:evenodd;"
points="38032,24113
38523,24113
38523,24404
38032,24404
38032,24113
" /> 
<polyline style="fill-rule:evenodd;"
points="38032,24863
38523,24863
38523,25154
38032,25154
38032,24863
" /> 
<polyline style="fill-rule:evenodd;"
points="44112,20451
44112,20942
43822,20942
43822,20451
44112,20451
" /> 
<polyline style="fill-rule:evenodd;"
points="43362,20451
43362,20942
43072,20942
43072,20451
43362,20451
" /> 
<polyline style="fill-rule:evenodd;"
points="41670,20293
41670,19802
41961,19802
41961,20293
41670,20293
" /> 
<polyline style="fill-rule:evenodd;"
points="42420,20293
42420,19802
42711,19802
42711,20293
42420,20293
" /> 
<polyline style="fill-rule:evenodd;"
points="42581,18940
42581,18399
43122,18399
43122,18940
42581,18940
" /> 
<circle cx="43852.4" cy="18669.8" r="270.472" /> 
<polyline style="fill-rule:evenodd;"
points="37663,21985
37663,21664
38104,21664
38104,21985
37663,21985
" /> 
<polyline style="fill-rule:evenodd;"
points="37663,22485
37663,22164
38104,22164
38104,22485
37663,22485
" /> 
<polyline style="fill-rule:evenodd;"
points="37663,23166
37663,22845
38104,22845
38104,23166
37663,23166
" /> 
<polyline style="fill-rule:evenodd;"
points="37663,23666
37663,23345
38104,23345
38104,23666
37663,23666
" /> 
<polyline style="fill-rule:evenodd;"
points="45432,20667
45767,20667
45767,20923
45432,20923
45432,20667
" /> 
<polyline style="fill-rule:evenodd;"
points="44566,21042
44901,21042
44901,21298
44566,21298
44566,21042
" /> 
<polyline style="fill-rule:evenodd;"
points="44566,20292
44901,20292
44901,20548
44566,20548
44566,20292
" /> 
<polyline style="fill-rule:evenodd;"
points="39951,28743
39951,28202
40492,28202
40492,28743
39951,28743
" /> 
<circle cx="41222.4" cy="28473" r="270.472" /> 
<circle cx="42222.4" cy="28473" r="270.472" /> 
<circle cx="43222.4" cy="28473" r="270.472" /> 
<polyline style="fill-rule:evenodd;"
points="44112,19566
44112,20057
43822,20057
43822,19566
44112,19566
" /> 
<polyline style="fill-rule:evenodd;"
points="43362,19566
43362,20057
43072,20057
43072,19566
43362,19566
" /> 
<polyline style="fill-rule:evenodd;"
points="49860,19430
49860,18939
50351,18939
50351,19430
49860,19430
" /> 
<circle cx="49106.3" cy="19185" r="245.472" /> 
<circle cx="49106.3" cy="20185" r="245.472" /> 
<polyline style="fill-rule:evenodd;"
points="47990,23188
47990,23055
49190,23055
49190,23188
47990,23188
" /> 
<polyline style="fill-rule:evenodd;"
points="47990,22688
47990,22555
49190,22555
49190,22688
47990,22688
" /> 
<polyline style="fill-rule:evenodd;"
points="47990,22188
47990,22055
49190,22055
49190,22188
47990,22188
" /> 
<polyline style="fill-rule:evenodd;"
points="47990,21688
47990,21555
49190,21555
49190,21688
47990,21688
" /> 
<polyline style="fill-rule:evenodd;"
points="47990,23688
47990,23555
49190,23555
49190,23688
47990,23688
" /> 
<polyline style="fill-rule:evenodd;"
points="47990,24188
47990,24055
49190,24055
49190,24188
47990,24188
" /> 
<polyline style="fill-rule:evenodd;"
points="47990,24688
47990,24555
49190,24555
49190,24688
47990,24688
" /> 
<polyline style="fill-rule:evenodd;"
points="47990,25188
47990,25055
49190,25055
49190,25188
47990,25188
" /> 
<polyline style="fill-rule:evenodd;"
points="47990,25688
47990,25555
49190,25555
49190,25688
47990,25688
" /> 
<polyline style="fill-rule:evenodd;"
points="47990,26188
47990,26055
49190,26055
49190,26188
47990,26188
" /> 
<polyline style="fill-rule:evenodd;"
points="51990,26188
51990,26055
53190,26055
53190,26188
51990,26188
" /> 
<polyline style="fill-rule:evenodd;"
points="51990,25688
51990,25555
53190,25555
53190,25688
51990,25688
" /> 
<polyline style="fill-rule:evenodd;"
points="51990,25188
51990,25055
53190,25055
53190,25188
51990,25188
" /> 
<polyline style="fill-rule:evenodd;"
points="51990,24688
51990,24555
53190,24555
53190,24688
51990,24688
" /> 
<polyline style="fill-rule:evenodd;"
points="51990,24188
51990,24055
53190,24055
53190,24188
51990,24188
" /> 
<polyline style="fill-rule:evenodd;"
points="51990,23688
51990,23555
53190,23555
53190,23688
51990,23688
" /> 
<polyline style="fill-rule:evenodd;"
points="51990,23188
51990,23055
53190,23055
53190,23188
51990,23188
" /> 
<polyline style="fill-rule:evenodd;"
points="51990,22688
51990,22555
53190,22555
53190,22688
51990,22688
" /> 
<polyline style="fill-rule:evenodd;"
points="51990,22188
51990,22055
53190,22055
53190,22188
51990,22188
" /> 
<polyline style="fill-rule:evenodd;"
points="51990,21688
51990,21555
53190,21555
53190,21688
51990,21688
" /> 
<polyline style="fill-rule:evenodd;"
points="47764,19833
47764,20324
47473,20324
47473,19833
47764,19833
" /> 
<polyline style="fill-rule:evenodd;"
points="47014,19833
47014,20324
46723,20324
46723,19833
47014,19833
" /> 
<polyline style="fill-rule:evenodd;"
points="46723,21210
46723,20719
47014,20719
47014,21210
46723,21210
" /> 
<polyline style="fill-rule:evenodd;"
points="47473,21210
47473,20719
47764,20719
47764,21210
47473,21210
" /> 
<polyline style="fill-rule:evenodd;"
points="50109,21383
50109,20892
50400,20892
50400,21383
50109,21383
" /> 
<polyline style="fill-rule:evenodd;"
points="50859,21383
50859,20892
51150,20892
51150,21383
50859,21383
" /> 
<polyline style="fill-rule:evenodd;"
points="46900,23987
47391,23987
47391,24278
46900,24278
46900,23987
" /> 
<polyline style="fill-rule:evenodd;"
points="46900,24737
47391,24737
47391,25028
46900,25028
46900,24737
" /> 
<polyline style="fill-rule:evenodd;"
points="52981,20325
52981,20816
52690,20816
52690,20325
52981,20325
" /> 
<polyline style="fill-rule:evenodd;"
points="52231,20325
52231,20816
51940,20816
51940,20325
52231,20325
" /> 
<polyline style="fill-rule:evenodd;"
points="50538,20166
50538,19675
50829,19675
50829,20166
50538,20166
" /> 
<polyline style="fill-rule:evenodd;"
points="51288,20166
51288,19675
51579,19675
51579,20166
51288,20166
" /> 
<polyline style="fill-rule:evenodd;"
points="51450,18813
51450,18272
51990,18272
51990,18813
51450,18813
" /> 
<circle cx="52720.5" cy="18543.3" r="270.472" /> 
<polyline style="fill-rule:evenodd;"
points="46531,21859
46531,21538
46972,21538
46972,21859
46531,21859
" /> 
<polyline style="fill-rule:evenodd;"
points="46531,22359
46531,22038
46972,22038
46972,22359
46531,22359
" /> 
<polyline style="fill-rule:evenodd;"
points="46531,23040
46531,22719
46972,22719
46972,23040
46531,23040
" /> 
<polyline style="fill-rule:evenodd;"
points="46531,23540
46531,23219
46972,23219
46972,23540
46531,23540
" /> 
<polyline style="fill-rule:evenodd;"
points="54300,20541
54635,20541
54635,20797
54300,20797
54300,20541
" /> 
<polyline style="fill-rule:evenodd;"
points="53434,20916
53769,20916
53769,21172
53434,21172
53434,20916
" /> 
<polyline style="fill-rule:evenodd;"
points="53434,20166
53769,20166
53769,20422
53434,20422
53434,20166
" /> 
<polyline style="fill-rule:evenodd;"
points="48820,28616
48820,28075
49361,28075
49361,28616
48820,28616
" /> 
<circle cx="50090.6" cy="28346.5" r="270.472" /> 
<circle cx="51090.6" cy="28346.5" r="270.472" /> 
<circle cx="52090.6" cy="28346.5" r="270.472" /> 
<polyline style="fill-rule:evenodd;"
points="52981,19439
52981,19930
52690,19930
52690,19439
52981,19439
" /> 
<polyline style="fill-rule:evenodd;"
points="52231,19439
52231,19930
51940,19930
51940,19439
52231,19439
" /> 
<polyline style="fill-rule:evenodd;"
points="77026,19430
77026,18939
77517,18939
77517,19430
77026,19430
" /> 
<circle cx="76271.7" cy="19185" r="245.472" /> 
<circle cx="76271.7" cy="20185" r="245.472" /> 
<polyline style="fill-rule:evenodd;"
points="75155,23188
75155,23055
76356,23055
76356,23188
75155,23188
" /> 
<polyline style="fill-rule:evenodd;"
points="75155,22688
75155,22555
76356,22555
76356,22688
75155,22688
" /> 
<polyline style="fill-rule:evenodd;"
points="75155,22188
75155,22055
76356,22055
76356,22188
75155,22188
" /> 
<polyline style="fill-rule:evenodd;"
points="75155,21688
75155,21555
76356,21555
76356,21688
75155,21688
" /> 
<polyline style="fill-rule:evenodd;"
points="75155,23688
75155,23555
76356,23555
76356,23688
75155,23688
" /> 
<polyline style="fill-rule:evenodd;"
points="75155,24188
75155,24055
76356,24055
76356,24188
75155,24188
" /> 
<polyline style="fill-rule:evenodd;"
points="75155,24688
75155,24555
76356,24555
76356,24688
75155,24688
" /> 
<polyline style="fill-rule:evenodd;"
points="75155,25188
75155,25055
76356,25055
76356,25188
75155,25188
" /> 
<polyline style="fill-rule:evenodd;"
points="75155,25688
75155,25555
76356,25555
76356,25688
75155,25688
" /> 
<polyline style="fill-rule:evenodd;"
points="75155,26188
75155,26055
76356,26055
76356,26188
75155,26188
" /> 
<polyline style="fill-rule:evenodd;"
points="79155,26188
79155,26055
80356,26055
80356,26188
79155,26188
" /> 
<polyline style="fill-rule:evenodd;"
points="79155,25688
79155,25555
80356,25555
80356,25688
79155,25688
" /> 
<polyline style="fill-rule:evenodd;"
points="79155,25188
79155,25055
80356,25055
80356,25188
79155,25188
" /> 
<polyline style="fill-rule:evenodd;"
points="79155,24688
79155,24555
80356,24555
80356,24688
79155,24688
" /> 
<polyline style="fill-rule:evenodd;"
points="79155,24188
79155,24055
80356,24055
80356,24188
79155,24188
" /> 
<polyline style="fill-rule:evenodd;"
points="79155,23688
79155,23555
80356,23555
80356,23688
79155,23688
" /> 
<polyline style="fill-rule:evenodd;"
points="79155,23188
79155,23055
80356,23055
80356,23188
79155,23188
" /> 
<polyline style="fill-rule:evenodd;"
points="79155,22688
79155,22555
80356,22555
80356,22688
79155,22688
" /> 
<polyline style="fill-rule:evenodd;"
points="79155,22188
79155,22055
80356,22055
80356,22188
79155,22188
" /> 
<polyline style="fill-rule:evenodd;"
points="79155,21688
79155,21555
80356,21555
80356,21688
79155,21688
" /> 
<polyline style="fill-rule:evenodd;"
points="74929,19833
74929,20324
74638,20324
74638,19833
74929,19833
" /> 
<polyline style="fill-rule:evenodd;"
points="74179,19833
74179,20324
73888,20324
73888,19833
74179,19833
" /> 
<polyline style="fill-rule:evenodd;"
points="73888,21210
73888,20719
74179,20719
74179,21210
73888,21210
" /> 
<polyline style="fill-rule:evenodd;"
points="74638,21210
74638,20719
74929,20719
74929,21210
74638,21210
" /> 
<polyline style="fill-rule:evenodd;"
points="77274,21383
77274,20892
77565,20892
77565,21383
77274,21383
" /> 
<polyline style="fill-rule:evenodd;"
points="78024,21383
78024,20892
78315,20892
78315,21383
78024,21383
" /> 
<polyline style="fill-rule:evenodd;"
points="74065,23987
74556,23987
74556,24278
74065,24278
74065,23987
" /> 
<polyline style="fill-rule:evenodd;"
points="74065,24737
74556,24737
74556,25028
74065,25028
74065,24737
" /> 
<polyline style="fill-rule:evenodd;"
points="80146,20325
80146,20816
79855,20816
79855,20325
80146,20325
" /> 
<polyline style="fill-rule:evenodd;"
points="79396,20325
79396,20816
79105,20816
79105,20325
79396,20325
" /> 
<polyline style="fill-rule:evenodd;"
points="77703,20166
77703,19675
77994,19675
77994,20166
77703,20166
" /> 
<polyline style="fill-rule:evenodd;"
points="78453,20166
78453,19675
78744,19675
78744,20166
78453,20166
" /> 
<polyline style="fill-rule:evenodd;"
points="78615,18813
78615,18272
79156,18272
79156,18813
78615,18813
" /> 
<circle cx="79885.8" cy="18543.3" r="270.472" /> 
<polyline style="fill-rule:evenodd;"
points="73696,21859
73696,21538
74137,21538
74137,21859
73696,21859
" /> 
<polyline style="fill-rule:evenodd;"
points="73696,22359
73696,22038
74137,22038
74137,22359
73696,22359
" /> 
<polyline style="fill-rule:evenodd;"
points="73696,23040
73696,22719
74137,22719
74137,23040
73696,23040
" /> 
<polyline style="fill-rule:evenodd;"
points="73696,23540
73696,23219
74137,23219
74137,23540
73696,23540
" /> 
<polyline style="fill-rule:evenodd;"
points="81466,20541
81801,20541
81801,20797
81466,20797
81466,20541
" /> 
<polyline style="fill-rule:evenodd;"
points="80600,20916
80935,20916
80935,21172
80600,21172
80600,20916
" /> 
<polyline style="fill-rule:evenodd;"
points="80600,20166
80935,20166
80935,20422
80600,20422
80600,20166
" /> 
<polyline style="fill-rule:evenodd;"
points="75985,28616
75985,28075
76526,28075
76526,28616
75985,28616
" /> 
<circle cx="77255.9" cy="28346.5" r="270.472" /> 
<circle cx="78255.9" cy="28346.5" r="270.472" /> 
<circle cx="79255.9" cy="28346.5" r="270.472" /> 
<polyline style="fill-rule:evenodd;"
points="80146,19439
80146,19930
79855,19930
79855,19439
80146,19439
" /> 
<polyline style="fill-rule:evenodd;"
points="79396,19439
79396,19930
79105,19930
79105,19439
79396,19439
" /> 
</g> 
</svg>
