<?xml version="1.0" standalone="no"?>
 <!DOCTYPE svg PUBLIC "-//W3C//DTD SVG 1.1//EN" 
 "http://www.w3.org/Graphics/SVG/1.1/DTD/svg11.dtd"> 
<svg xmlns="http://www.w3.org/2000/svg" version="1.1" 
    width="41.9989cm" height="29.7002cm" viewBox="0 0 165350 116930 ">
<title>SVG Picture created as AT42QT1010-F_Cu.svg date 2014/07/07 13:27:06 </title>
  <desc>Picture generated by PCBNEW </desc>
<g style="fill:#000000; fill-opacity:1;stroke:#000000; stroke-opacity:1;
stroke-linecap:round; stroke-linejoin:round; "
 transform="translate(0 0) scale(1 1)">
</g>
<g style="fill:#000000; fill-opacity:0.0; 
stroke:#000000; stroke-width:59.0551; stroke-opacity:1; 
stroke-linecap:round; stroke-linejoin:round;">
</g>
<g style="fill:#000000; fill-opacity:1.0; 
stroke:#000000; stroke-width:59.0551; stroke-opacity:1; 
stroke-linecap:round; stroke-linejoin:round;">
<polyline style="fill-rule:evenodd;"
points="95530,55650
95530,55160
96021,55160
96021,55650
95530,55650
" /> 
<circle cx="94775.6" cy="55405.5" r="245.472" /> 
<circle cx="94775.6" cy="56405.5" r="245.472" /> 
<polyline style="fill-rule:evenodd;"
points="93659,59409
93659,59275
94860,59275
94860,59409
93659,59409
" /> 
<polyline style="fill-rule:evenodd;"
points="93659,58909
93659,58775
94860,58775
94860,58909
93659,58909
" /> 
<polyline style="fill-rule:evenodd;"
points="93659,58409
93659,58275
94860,58275
94860,58409
93659,58409
" /> 
<polyline style="fill-rule:evenodd;"
points="93659,57909
93659,57775
94860,57775
94860,57909
93659,57909
" /> 
<polyline style="fill-rule:evenodd;"
points="93659,59909
93659,59775
94860,59775
94860,59909
93659,59909
" /> 
<polyline style="fill-rule:evenodd;"
points="93659,60409
93659,60275
94860,60275
94860,60409
93659,60409
" /> 
<polyline style="fill-rule:evenodd;"
points="93659,60909
93659,60775
94860,60775
94860,60909
93659,60909
" /> 
<polyline style="fill-rule:evenodd;"
points="93659,61409
93659,61275
94860,61275
94860,61409
93659,61409
" /> 
<polyline style="fill-rule:evenodd;"
points="93659,61909
93659,61775
94860,61775
94860,61909
93659,61909
" /> 
<polyline style="fill-rule:evenodd;"
points="93659,62409
93659,62275
94860,62275
94860,62409
93659,62409
" /> 
<polyline style="fill-rule:evenodd;"
points="97659,62409
97659,62275
98860,62275
98860,62409
97659,62409
" /> 
<polyline style="fill-rule:evenodd;"
points="97659,61909
97659,61775
98860,61775
98860,61909
97659,61909
" /> 
<polyline style="fill-rule:evenodd;"
points="97659,61409
97659,61275
98860,61275
98860,61409
97659,61409
" /> 
<polyline style="fill-rule:evenodd;"
points="97659,60909
97659,60775
98860,60775
98860,60909
97659,60909
" /> 
<polyline style="fill-rule:evenodd;"
points="97659,60409
97659,60275
98860,60275
98860,60409
97659,60409
" /> 
<polyline style="fill-rule:evenodd;"
points="97659,59909
97659,59775
98860,59775
98860,59909
97659,59909
" /> 
<polyline style="fill-rule:evenodd;"
points="97659,59409
97659,59275
98860,59275
98860,59409
97659,59409
" /> 
<polyline style="fill-rule:evenodd;"
points="97659,58909
97659,58775
98860,58775
98860,58909
97659,58909
" /> 
<polyline style="fill-rule:evenodd;"
points="97659,58409
97659,58275
98860,58275
98860,58409
97659,58409
" /> 
<polyline style="fill-rule:evenodd;"
points="97659,57909
97659,57775
98860,57775
98860,57909
97659,57909
" /> 
<polyline style="fill-rule:evenodd;"
points="93433,56053
93433,56544
93142,56544
93142,56053
93433,56053
" /> 
<polyline style="fill-rule:evenodd;"
points="92683,56053
92683,56544
92392,56544
92392,56053
92683,56053
" /> 
<polyline style="fill-rule:evenodd;"
points="92392,57430
92392,56939
92683,56939
92683,57430
92392,57430
" /> 
<polyline style="fill-rule:evenodd;"
points="93142,57430
93142,56939
93433,56939
93433,57430
93142,57430
" /> 
<polyline style="fill-rule:evenodd;"
points="95778,57603
95778,57112
96069,57112
96069,57603
95778,57603
" /> 
<polyline style="fill-rule:evenodd;"
points="96528,57603
96528,57112
96819,57112
96819,57603
96528,57603
" /> 
<polyline style="fill-rule:evenodd;"
points="92569,60207
93060,60207
93060,60498
92569,60498
92569,60207
" /> 
<polyline style="fill-rule:evenodd;"
points="92569,60957
93060,60957
93060,61248
92569,61248
92569,60957
" /> 
<polyline style="fill-rule:evenodd;"
points="98650,56545
98650,57036
98359,57036
98359,56545
98650,56545
" /> 
<polyline style="fill-rule:evenodd;"
points="97900,56545
97900,57036
97609,57036
97609,56545
97900,56545
" /> 
<polyline style="fill-rule:evenodd;"
points="96207,56387
96207,55896
96498,55896
96498,56387
96207,56387
" /> 
<polyline style="fill-rule:evenodd;"
points="96957,56387
96957,55896
97248,55896
97248,56387
96957,56387
" /> 
<polyline style="fill-rule:evenodd;"
points="97119,55034
97119,54493
97660,54493
97660,55034
97119,55034
" /> 
<circle cx="98389.8" cy="54763.8" r="270.472" /> 
<polyline style="fill-rule:evenodd;"
points="92200,58079
92200,57758
92641,57758
92641,58079
92200,58079
" /> 
<polyline style="fill-rule:evenodd;"
points="92200,58579
92200,58258
92641,58258
92641,58579
92200,58579
" /> 
<polyline style="fill-rule:evenodd;"
points="92200,59260
92200,58939
92641,58939
92641,59260
92200,59260
" /> 
<polyline style="fill-rule:evenodd;"
points="92200,59760
92200,59439
92641,59439
92641,59760
92200,59760
" /> 
<polyline style="fill-rule:evenodd;"
points="99970,56761
100305,56761
100305,57017
99970,57017
99970,56761
" /> 
<polyline style="fill-rule:evenodd;"
points="99104,57136
99439,57136
99439,57392
99104,57392
99104,57136
" /> 
<polyline style="fill-rule:evenodd;"
points="99104,56386
99439,56386
99439,56642
99104,56642
99104,56386
" /> 
<polyline style="fill-rule:evenodd;"
points="94489,64837
94489,64296
95030,64296
95030,64837
94489,64837
" /> 
<circle cx="95759.8" cy="64566.9" r="270.472" /> 
<circle cx="96759.8" cy="64566.9" r="270.472" /> 
<circle cx="97759.8" cy="64566.9" r="270.472" /> 
<polyline style="fill-rule:evenodd;"
points="98650,55660
98650,56150
98359,56150
98359,55660
98650,55660
" /> 
<polyline style="fill-rule:evenodd;"
points="97900,55660
97900,56150
97609,56150
97609,55660
97900,55660
" /> 
</g>
<g style="fill:#000000; fill-opacity:1.0; 
stroke:#000000; stroke-width:157.48; stroke-opacity:1; 
stroke-linecap:round; stroke-linejoin:round;">
</g>
<g style="fill:#000000; fill-opacity:0.0; 
stroke:#000000; stroke-width:157.48; stroke-opacity:1; 
stroke-linecap:round; stroke-linejoin:round;">
<path d="M95775 55993
L96180 56397
" />
<path d="M95775 55405
L95775 55993
" />
</g>
<g style="fill:#000000; fill-opacity:0.0; 
stroke:#000000; stroke-width:314.961; stroke-opacity:1; 
stroke-linecap:round; stroke-linejoin:round;">
<path d="M95775 55153
L96165 54763
" />
<path d="M96165 54763
L97389 54763
" />
<path d="M95775 55405
L95775 55153
" />
</g>
<g style="fill:#000000; fill-opacity:0.0; 
stroke:#000000; stroke-width:157.48; stroke-opacity:1; 
stroke-linecap:round; stroke-linejoin:round;">
<path d="M93155 58419
L93232 58342
" />
<path d="M93232 58342
L94259 58342
" />
<path d="M92421 58419
L93155 58419
" />
</g>
<g style="fill:#000000; fill-opacity:0.0; 
stroke:#000000; stroke-width:118.11; stroke-opacity:1; 
stroke-linecap:round; stroke-linejoin:round;">
<path d="M97090 65047
L97102 65047
" />
<path d="M99092 61842
L98259 61842
" />
<path d="M99420 62170
L99092 61842
" />
<path d="M99420 62900
L99420 62170
" />
<path d="M98730 63590
L99420 62900
" />
<path d="M97580 63590
L98730 63590
" />
<path d="M97250 63920
L97580 63590
" />
<path d="M97250 64900
L97250 63920
" />
<path d="M97102 65047
L97250 64900
" />
<path d="M97090 65047
L96240 65047
" />
<path d="M96240 65047
L95759 64566
" />
</g>
<g style="fill:#000000; fill-opacity:0.0; 
stroke:#000000; stroke-width:157.48; stroke-opacity:1; 
stroke-linecap:round; stroke-linejoin:round;">
<path d="M93240 57842
L94259 57842
" />
<path d="M93163 57919
L93240 57842
" />
<path d="M92421 57919
L93163 57919
" />
<path d="M93602 57185
L94259 57842
" />
<path d="M93288 57185
L93602 57185
" />
</g>
<g style="fill:#000000; fill-opacity:0.0; 
stroke:#000000; stroke-width:236.22; stroke-opacity:1; 
stroke-linecap:round; stroke-linejoin:round;">
<path d="M93288 57185
L93288 56299
" />
</g>
<g style="fill:#000000; fill-opacity:0.0; 
stroke:#000000; stroke-width:157.48; stroke-opacity:1; 
stroke-linecap:round; stroke-linejoin:round;">
<path d="M92868 59100
L93125 58842
" />
<path d="M93125 58842
L94259 58842
" />
<path d="M92421 59100
L92868 59100
" />
<path d="M95570 63385
L95472 63385
" />
<path d="M96751 64566
L95570 63385
" />
<path d="M96759 64566
L96751 64566
" />
<path d="M95259 58842
L95767 59350
" />
<path d="M95767 59350
L95767 63090
" />
<path d="M95767 63090
L95472 63385
" />
<path d="M94259 58842
L95259 58842
" />
</g>
<g style="fill:#000000; fill-opacity:0.0; 
stroke:#000000; stroke-width:118.11; stroke-opacity:1; 
stroke-linecap:round; stroke-linejoin:round;">
<path d="M94173 63385
L93366 62578
" />
</g>
<g style="fill:#000000; fill-opacity:0.0; 
stroke:#000000; stroke-width:157.48; stroke-opacity:1; 
stroke-linecap:round; stroke-linejoin:round;">
<path d="M95472 63385
L95354 63385
" />
</g>
<g style="fill:#000000; fill-opacity:0.0; 
stroke:#000000; stroke-width:118.11; stroke-opacity:1; 
stroke-linecap:round; stroke-linejoin:round;">
<path d="M95354 63385
L94173 63385
" />
<path d="M93366 62586
L93366 62578
" />
<path d="M93366 62578
L93366 62586
" />
<path d="M93125 60353
L93358 60586
" />
<path d="M93358 60586
L93358 62570
" />
<path d="M93358 62570
L93366 62578
" />
<path d="M92814 60353
L93125 60353
" />
</g>
<g style="fill:#000000; fill-opacity:0.0; 
stroke:#000000; stroke-width:157.48; stroke-opacity:1; 
stroke-linecap:round; stroke-linejoin:round;">
<path d="M95527 57358
L95924 57358
" />
<path d="M94775 56606
L95527 57358
" />
<path d="M94775 56405
L94775 56606
" />
<path d="M95177 58842
L95924 58095
" />
<path d="M95924 58095
L95924 57358
" />
<path d="M94259 58842
L95177 58842
" />
</g>
<g style="fill:#000000; fill-opacity:0.0; 
stroke:#000000; stroke-width:118.11; stroke-opacity:1; 
stroke-linecap:round; stroke-linejoin:round;">
<path d="M92538 57185
L92736 57185
" />
<path d="M92736 57185
L92913 57007
" />
<path d="M92913 57007
L92913 55944
" />
<path d="M92913 55944
L93031 55826
" />
<path d="M93031 55826
L94196 55826
" />
<path d="M94196 55826
L94775 56405
" />
<path d="M94874 64566
L95572 65265
" />
<path d="M99960 57953
L99271 57264
" />
<path d="M99960 64649
L99960 57953
" />
<path d="M99344 65265
L99960 64649
" />
<path d="M95572 65265
L99344 65265
" />
</g>
<g style="fill:#000000; fill-opacity:0.0; 
stroke:#000000; stroke-width:157.48; stroke-opacity:1; 
stroke-linecap:round; stroke-linejoin:round;">
<path d="M93314 59342
L94259 59342
" />
<path d="M93057 59600
L93314 59342
" />
<path d="M92421 59600
L93057 59600
" />
<path d="M94366 64960
L93011 64960
" />
<path d="M93011 64960
L92519 64468
" />
<path d="M92519 64468
L92519 61398
" />
<path d="M92519 61398
L92814 61103
" />
<path d="M94759 64566
L94366 64960
" />
<path d="M92735 61023
L92519 61023
" />
<path d="M92519 61023
L92283 60787
" />
<path d="M92283 60787
L92283 59738
" />
<path d="M92283 59738
L92421 59600
" />
<path d="M92814 61103
L92735 61023
" />
</g>
<g style="fill:#000000; fill-opacity:0.0; 
stroke:#000000; stroke-width:118.11; stroke-opacity:1; 
stroke-linecap:round; stroke-linejoin:round;">
<path d="M98205 57264
L99271 57264
" />
<path d="M98125 57185
L98205 57264
" />
<path d="M98125 56118
L98125 57185
" />
<path d="M97913 55905
L98125 56118
" />
<path d="M97754 55905
L97913 55905
" />
<path d="M97339 55905
L97754 55905
" />
<path d="M97103 56141
L97339 55905
" />
<path d="M97103 56605
L97103 56141
" />
<path d="M96674 57034
L97103 56605
" />
<path d="M96674 57358
L96674 57034
" />
<path d="M94775 55586
L95889 56700
" />
<path d="M95889 56700
L97007 56700
" />
<path d="M97007 56700
L97103 56605
" />
<path d="M94775 55405
L94775 55586
" />
<path d="M94759 64566
L94874 64566
" />
</g>
<g style="fill:#000000; fill-opacity:0.0; 
stroke:#000000; stroke-width:157.48; stroke-opacity:1; 
stroke-linecap:round; stroke-linejoin:round;">
<path d="M92538 55099
L92913 54724
" />
<path d="M92913 54724
L94094 54724
" />
<path d="M94094 54724
L94775 55405
" />
<path d="M92538 56299
L92538 55099
" />
<path d="M100098 55216
L100098 56850
" />
<path d="M100098 56850
L100137 56889
" />
</g>
<g style="fill:#000000; fill-opacity:0.0; 
stroke:#000000; stroke-width:314.961; stroke-opacity:1; 
stroke-linecap:round; stroke-linejoin:round;">
<path d="M100098 56850
L100137 56889
" />
<path d="M100098 55216
L100098 56850
" />
<path d="M98629 54625
L99507 54625
" />
<path d="M99507 54625
L100098 55216
" />
<path d="M98492 54763
L98629 54625
" />
<path d="M98389 54763
L98492 54763
" />
</g>
<g style="fill:#000000; fill-opacity:0.0; 
stroke:#000000; stroke-width:118.11; stroke-opacity:1; 
stroke-linecap:round; stroke-linejoin:round;">
<path d="M98996 55905
L99271 56181
" />
<path d="M99271 56181
L99271 56514
" />
</g>
<g style="fill:#000000; fill-opacity:0.0; 
stroke:#000000; stroke-width:314.961; stroke-opacity:1; 
stroke-linecap:round; stroke-linejoin:round;">
<path d="M99271 56181
L99271 56514
" />
<path d="M98996 55905
L99271 56181
" />
<path d="M98504 55905
L98996 55905
" />
</g>
<g style="fill:#000000; fill-opacity:0.0; 
stroke:#000000; stroke-width:196.85; stroke-opacity:1; 
stroke-linecap:round; stroke-linejoin:round;">
<path d="M98504 55652
L98504 55905
" />
<path d="M98504 56791
L98504 55652
" />
</g>
<g style="fill:#000000; fill-opacity:0.0; 
stroke:#000000; stroke-width:157.48; stroke-opacity:1; 
stroke-linecap:round; stroke-linejoin:round;">
<path d="M97515 58342
L97244 58070
" />
<path d="M97244 58070
L97244 57302
" />
<path d="M97244 57302
L97754 56791
" />
<path d="M98259 58342
L97515 58342
" />
</g>
<g style="fill:#FFFFFF; fill-opacity:0.0; 
stroke:#FFFFFF; stroke-width:59.0551; stroke-opacity:1; 
stroke-linecap:round; stroke-linejoin:round;">
</g>
<g style="fill:#FFFFFF; fill-opacity:1.0; 
stroke:#FFFFFF; stroke-width:59.0551; stroke-opacity:1; 
stroke-linecap:round; stroke-linejoin:round;">
<circle cx="95775.6" cy="55405.5" r="39.3701" /> 
<circle cx="94775.6" cy="55405.5" r="39.3701" /> 
<circle cx="94775.6" cy="56405.5" r="39.3701" /> 
<circle cx="97389.8" cy="54763.8" r="39.3701" /> 
<circle cx="98389.8" cy="54763.8" r="39.3701" /> 
<circle cx="94759.8" cy="64566.9" r="39.3701" /> 
<circle cx="95759.8" cy="64566.9" r="39.3701" /> 
<circle cx="96759.8" cy="64566.9" r="39.3701" /> 
<circle cx="97759.8" cy="64566.9" r="39.3701" /> 
</g> 
</svg>
