<?xml version="1.0" standalone="no"?>
 <!DOCTYPE svg PUBLIC "-//W3C//DTD SVG 1.1//EN" 
 "http://www.w3.org/Graphics/SVG/1.1/DTD/svg11.dtd"> 
<svg xmlns="http://www.w3.org/2000/svg" version="1.1" 
    width="41.9989cm" height="29.7002cm" viewBox="0 0 165350 116930 ">
<title>SVG Picture created as AT42QT1010-F_Mask.svg date 2014/07/07 13:27:06 </title>
  <desc>Picture generated by PCBNEW </desc>
<g style="fill:#000000; fill-opacity:1;stroke:#000000; stroke-opacity:1;
stroke-linecap:round; stroke-linejoin:round; "
 transform="translate(0 0) scale(1 1)">
</g>
<g style="fill:#000000; fill-opacity:0.0; 
stroke:#000000; stroke-width:59.0551; stroke-opacity:1; 
stroke-linecap:round; stroke-linejoin:round;">
</g>
<g style="fill:#000000; fill-opacity:1.0; 
stroke:#000000; stroke-width:59.0551; stroke-opacity:1; 
stroke-linecap:round; stroke-linejoin:round;">
<polyline style="fill-rule:evenodd;"
points="95530,55650
95530,55160
96021,55160
96021,55650
95530,55650
" /> 
<circle cx="94775.6" cy="55405.5" r="245.472" /> 
<circle cx="94775.6" cy="56405.5" r="245.472" /> 
<polyline style="fill-rule:evenodd;"
points="93659,59409
93659,59275
94860,59275
94860,59409
93659,59409
" /> 
<polyline style="fill-rule:evenodd;"
points="93659,58909
93659,58775
94860,58775
94860,58909
93659,58909
" /> 
<polyline style="fill-rule:evenodd;"
points="93659,58409
93659,58275
94860,58275
94860,58409
93659,58409
" /> 
<polyline style="fill-rule:evenodd;"
points="93659,57909
93659,57775
94860,57775
94860,57909
93659,57909
" /> 
<polyline style="fill-rule:evenodd;"
points="93659,59909
93659,59775
94860,59775
94860,59909
93659,59909
" /> 
<polyline style="fill-rule:evenodd;"
points="93659,60409
93659,60275
94860,60275
94860,60409
93659,60409
" /> 
<polyline style="fill-rule:evenodd;"
points="93659,60909
93659,60775
94860,60775
94860,60909
93659,60909
" /> 
<polyline style="fill-rule:evenodd;"
points="93659,61409
93659,61275
94860,61275
94860,61409
93659,61409
" /> 
<polyline style="fill-rule:evenodd;"
points="93659,61909
93659,61775
94860,61775
94860,61909
93659,61909
" /> 
<polyline style="fill-rule:evenodd;"
points="93659,62409
93659,62275
94860,62275
94860,62409
93659,62409
" /> 
<polyline style="fill-rule:evenodd;"
points="97659,62409
97659,62275
98860,62275
98860,62409
97659,62409
" /> 
<polyline style="fill-rule:evenodd;"
points="97659,61909
97659,61775
98860,61775
98860,61909
97659,61909
" /> 
<polyline style="fill-rule:evenodd;"
points="97659,61409
97659,61275
98860,61275
98860,61409
97659,61409
" /> 
<polyline style="fill-rule:evenodd;"
points="97659,60909
97659,60775
98860,60775
98860,60909
97659,60909
" /> 
<polyline style="fill-rule:evenodd;"
points="97659,60409
97659,60275
98860,60275
98860,60409
97659,60409
" /> 
<polyline style="fill-rule:evenodd;"
points="97659,59909
97659,59775
98860,59775
98860,59909
97659,59909
" /> 
<polyline style="fill-rule:evenodd;"
points="97659,59409
97659,59275
98860,59275
98860,59409
97659,59409
" /> 
<polyline style="fill-rule:evenodd;"
points="97659,58909
97659,58775
98860,58775
98860,58909
97659,58909
" /> 
<polyline style="fill-rule:evenodd;"
points="97659,58409
97659,58275
98860,58275
98860,58409
97659,58409
" /> 
<polyline style="fill-rule:evenodd;"
points="97659,57909
97659,57775
98860,57775
98860,57909
97659,57909
" /> 
<polyline style="fill-rule:evenodd;"
points="93433,56053
93433,56544
93142,56544
93142,56053
93433,56053
" /> 
<polyline style="fill-rule:evenodd;"
points="92683,56053
92683,56544
92392,56544
92392,56053
92683,56053
" /> 
<polyline style="fill-rule:evenodd;"
points="92392,57430
92392,56939
92683,56939
92683,57430
92392,57430
" /> 
<polyline style="fill-rule:evenodd;"
points="93142,57430
93142,56939
93433,56939
93433,57430
93142,57430
" /> 
<polyline style="fill-rule:evenodd;"
points="95778,57603
95778,57112
96069,57112
96069,57603
95778,57603
" /> 
<polyline style="fill-rule:evenodd;"
points="96528,57603
96528,57112
96819,57112
96819,57603
96528,57603
" /> 
<polyline style="fill-rule:evenodd;"
points="92569,60207
93060,60207
93060,60498
92569,60498
92569,60207
" /> 
<polyline style="fill-rule:evenodd;"
points="92569,60957
93060,60957
93060,61248
92569,61248
92569,60957
" /> 
<polyline style="fill-rule:evenodd;"
points="98650,56545
98650,57036
98359,57036
98359,56545
98650,56545
" /> 
<polyline style="fill-rule:evenodd;"
points="97900,56545
97900,57036
97609,57036
97609,56545
97900,56545
" /> 
<polyline style="fill-rule:evenodd;"
points="96207,56387
96207,55896
96498,55896
96498,56387
96207,56387
" /> 
<polyline style="fill-rule:evenodd;"
points="96957,56387
96957,55896
97248,55896
97248,56387
96957,56387
" /> 
<polyline style="fill-rule:evenodd;"
points="97119,55034
97119,54493
97660,54493
97660,55034
97119,55034
" /> 
<circle cx="98389.8" cy="54763.8" r="270.472" /> 
<polyline style="fill-rule:evenodd;"
points="92200,58079
92200,57758
92641,57758
92641,58079
92200,58079
" /> 
<polyline style="fill-rule:evenodd;"
points="92200,58579
92200,58258
92641,58258
92641,58579
92200,58579
" /> 
<polyline style="fill-rule:evenodd;"
points="92200,59260
92200,58939
92641,58939
92641,59260
92200,59260
" /> 
<polyline style="fill-rule:evenodd;"
points="92200,59760
92200,59439
92641,59439
92641,59760
92200,59760
" /> 
<polyline style="fill-rule:evenodd;"
points="99970,56761
100305,56761
100305,57017
99970,57017
99970,56761
" /> 
<polyline style="fill-rule:evenodd;"
points="99104,57136
99439,57136
99439,57392
99104,57392
99104,57136
" /> 
<polyline style="fill-rule:evenodd;"
points="99104,56386
99439,56386
99439,56642
99104,56642
99104,56386
" /> 
<polyline style="fill-rule:evenodd;"
points="94489,64837
94489,64296
95030,64296
95030,64837
94489,64837
" /> 
<circle cx="95759.8" cy="64566.9" r="270.472" /> 
<circle cx="96759.8" cy="64566.9" r="270.472" /> 
<circle cx="97759.8" cy="64566.9" r="270.472" /> 
<polyline style="fill-rule:evenodd;"
points="98650,55660
98650,56150
98359,56150
98359,55660
98650,55660
" /> 
<polyline style="fill-rule:evenodd;"
points="97900,55660
97900,56150
97609,56150
97609,55660
97900,55660
" /> 
</g> 
</svg>
