<?xml version="1.0" standalone="no"?>
 <!DOCTYPE svg PUBLIC "-//W3C//DTD SVG 1.1//EN" 
 "http://www.w3.org/Graphics/SVG/1.1/DTD/svg11.dtd"> 
<svg xmlns="http://www.w3.org/2000/svg" version="1.1" 
    width="2.2225cm" height="3.13436cm" viewBox="0 0 8750 12340 ">
<title>SVG Picture created as AT42QT1010-append-Edge_Cuts.svg date 2014/07/03 16:33:00 </title>
  <desc>Picture generated by PCBNEW </desc>
<g style="fill:#000000; fill-opacity:1;stroke:#000000; stroke-opacity:1;
stroke-linecap:round; stroke-linejoin:round; "
 transform="translate(0 0) scale(1 1)">
</g>
<g style="fill:#000000; fill-opacity:0.0; 
stroke:#000000; stroke-width:39.3701; stroke-opacity:1; 
stroke-linecap:round; stroke-linejoin:round;">
<circle cx="7463.19" cy="10804.6" r="220.085" /> 
<circle cx="1262.4" cy="10706.1" r="278.388" /> 
<circle cx="7364.76" cy="1847.87" r="278.388" /> 
<circle cx="1262.4" cy="1847.87" r="278.388" /> 
<path d="M179 11001
L179 1552
" />
<path d="M7660 11788
L967 11788
" />
<path d="M8447 1552
L8447 11001
" />
<path d="M967 765
L7660 765
" />
<path d="M7660.04 11788.8 A787.402 787.402 0.0 0 0 8447.44 11001.4 " />
<path d="M179.725 11001.4 A787.402 787.402 0.0 0 0 967.126 11788.8 " />
<path d="M8447.44 1552.6 A787.402 787.402 0.0 0 0 7660.04 765.197 " />
<path d="M967.126 765.197 A787.402 787.402 0.0 0 0 179.725 1552.6 " />
<circle cx="7463.19" cy="10804.6" r="220.085" /> 
<circle cx="1262.4" cy="10706.1" r="278.388" /> 
<circle cx="7364.76" cy="1847.87" r="278.388" /> 
<circle cx="1262.4" cy="1847.87" r="278.388" /> 
<path d="M179 11001
L179 1552
" />
<path d="M7660 11788
L967 11788
" />
<path d="M8447 1552
L8447 11001
" />
<path d="M967 765
L7660 765
" />
<path d="M7660.04 11788.8 A787.402 787.402 0.0 0 0 8447.44 11001.4 " />
<path d="M179.725 11001.4 A787.402 787.402 0.0 0 0 967.126 11788.8 " />
<path d="M8447.44 1552.6 A787.402 787.402 0.0 0 0 7660.04 765.197 " />
<path d="M967.126 765.197 A787.402 787.402 0.0 0 0 179.725 1552.6 " />
</g> 
</svg>
